<svg version='1.1' xmlns='http://www.w3.org/2000/svg' xmlns:xlink='http://www.w3.org/1999/xlink' x='0px' y='0px' width="249.00" height="209.00" viewBox='0 0 249.00 209.00' xml:space='preserve' > <style>g.day { animation: wave 3s ease 0s infinite normal forwards; transform: translate(0px, 0px); } @keyframes wave { 5% { transform: translate(0px, -10px); } 10% { transform: translate(0px, 0px); } } g[data-week="0"][data-day="0"] { animation-delay: 0.000s; } g[data-week="0"][data-day="1"] { animation-delay: 0.050s; } g[data-week="0"][data-day="2"] { animation-delay: 0.100s; } g[data-week="0"][data-day="3"] { animation-delay: 0.150s; } g[data-week="0"][data-day="4"] { animation-delay: 0.200s; } g[data-week="0"][data-day="5"] { animation-delay: 0.250s; } g[data-week="0"][data-day="6"] { animation-delay: 0.300s; } g[data-week="1"][data-day="0"] { animation-delay: 0.050s; } g[data-week="1"][data-day="1"] { animation-delay: 0.100s; } g[data-week="1"][data-day="2"] { animation-delay: 0.150s; } g[data-week="1"][data-day="3"] { animation-delay: 0.200s; } g[data-week="1"][data-day="4"] { animation-delay: 0.250s; } g[data-week="1"][data-day="5"] { animation-delay: 0.300s; } g[data-week="1"][data-day="6"] { animation-delay: 0.350s; } g[data-week="2"][data-day="0"] { animation-delay: 0.100s; } g[data-week="2"][data-day="1"] { animation-delay: 0.150s; } g[data-week="2"][data-day="2"] { animation-delay: 0.200s; } g[data-week="2"][data-day="3"] { animation-delay: 0.250s; } g[data-week="2"][data-day="4"] { animation-delay: 0.300s; } g[data-week="2"][data-day="5"] { animation-delay: 0.350s; } g[data-week="2"][data-day="6"] { animation-delay: 0.400s; } g[data-week="3"][data-day="0"] { animation-delay: 0.150s; } g[data-week="3"][data-day="1"] { animation-delay: 0.200s; } g[data-week="3"][data-day="2"] { animation-delay: 0.250s; } g[data-week="3"][data-day="3"] { animation-delay: 0.300s; } g[data-week="3"][data-day="4"] { animation-delay: 0.350s; } g[data-week="3"][data-day="5"] { animation-delay: 0.400s; } g[data-week="3"][data-day="6"] { animation-delay: 0.450s; } g[data-week="4"][data-day="0"] { animation-delay: 0.200s; } g[data-week="4"][data-day="1"] { animation-delay: 0.250s; } g[data-week="4"][data-day="2"] { animation-delay: 0.300s; } g[data-week="4"][data-day="3"] { animation-delay: 0.350s; } g[data-week="4"][data-day="4"] { animation-delay: 0.400s; } g[data-week="4"][data-day="5"] { animation-delay: 0.450s; } g[data-week="4"][data-day="6"] { animation-delay: 0.500s; } g[data-week="5"][data-day="0"] { animation-delay: 0.250s; } g[data-week="5"][data-day="1"] { animation-delay: 0.300s; } g[data-week="5"][data-day="2"] { animation-delay: 0.350s; } g[data-week="5"][data-day="3"] { animation-delay: 0.400s; } g[data-week="5"][data-day="4"] { animation-delay: 0.450s; } g[data-week="5"][data-day="5"] { animation-delay: 0.500s; } g[data-week="5"][data-day="6"] { animation-delay: 0.550s; } g[data-week="6"][data-day="0"] { animation-delay: 0.300s; } g[data-week="6"][data-day="1"] { animation-delay: 0.350s; } g[data-week="6"][data-day="2"] { animation-delay: 0.400s; } g[data-week="6"][data-day="3"] { animation-delay: 0.450s; } g[data-week="6"][data-day="4"] { animation-delay: 0.500s; } g[data-week="6"][data-day="5"] { animation-delay: 0.550s; } g[data-week="6"][data-day="6"] { animation-delay: 0.600s; } g[data-week="7"][data-day="0"] { animation-delay: 0.350s; } g[data-week="7"][data-day="1"] { animation-delay: 0.400s; } g[data-week="7"][data-day="2"] { animation-delay: 0.450s; } g[data-week="7"][data-day="3"] { animation-delay: 0.500s; } g[data-week="7"][data-day="4"] { animation-delay: 0.550s; } g[data-week="7"][data-day="5"] { animation-delay: 0.600s; } g[data-week="7"][data-day="6"] { animation-delay: 0.650s; } </style> <defs> </defs> <g transform="translate(116.20000000000002,80)"> <g data-week="0" data-day="0" class="day"><path d="M0.00,12.80 -16.00,4.80 -16.00,8.00 0.00,16.00 z" fill="#212427"></path><path d="M0.00,12.80 16.00,4.80 16.00,8.00 0.00,16.00 z" fill="#26292d"></path><path d="M0.00,12.80 -16.00,4.80 0.00,-3.20 16.00,4.80 z" fill="#2d3135"></path></g> <g data-week="0" data-day="1" class="day"><path d="M-16.60,21.40 -32.60,13.40 -32.60,16.60 -16.60,24.60 z" fill="#212427"></path><path d="M-16.60,21.40 -0.60,13.40 -0.60,16.60 -16.60,24.60 z" fill="#26292d"></path><path d="M-16.60,21.40 -32.60,13.40 -16.60,5.40 -0.60,13.40 z" fill="#2d3135"></path></g> <g data-week="0" data-day="2" class="day"><path d="M-33.20,-37.00 -49.20,-45.00 -49.20,25.20 -33.20,33.20 z" fill="#00ab22"></path><path d="M-33.20,-37.00 -17.20,-45.00 -17.20,25.20 -33.20,33.20 z" fill="#00c227"></path><path d="M-33.20,-37.00 -49.20,-45.00 -33.20,-53.00 -17.20,-45.00 z" fill="#00e52e"></path></g> <g data-week="0" data-day="3" class="day"><path d="M-49.80,-41.40 -65.80,-49.40 -65.80,33.80 -49.80,41.80 z" fill="#00ab22"></path><path d="M-49.80,-41.40 -33.80,-49.40 -33.80,33.80 -49.80,41.80 z" fill="#00c227"></path><path d="M-49.80,-41.40 -65.80,-49.40 -49.80,-57.40 -33.80,-49.40 z" fill="#00e52e"></path></g> <g data-week="0" data-day="4" class="day"><path d="M-66.40,33.20 -82.40,25.20 -82.40,42.40 -66.40,50.40 z" fill="#0e3315"></path><path d="M-66.40,33.20 -50.40,25.20 -50.40,42.40 -66.40,50.40 z" fill="#103a18"></path><path d="M-66.40,33.20 -82.40,25.20 -66.40,17.20 -50.40,25.20 z" fill="#13451d"></path></g> <g data-week="0" data-day="5" class="day"><path d="M-83.00,35.80 -99.00,27.80 -99.00,51.00 -83.00,59.00 z" fill="#0e3315"></path><path d="M-83.00,35.80 -67.00,27.80 -67.00,51.00 -83.00,59.00 z" fill="#103a18"></path><path d="M-83.00,35.80 -99.00,27.80 -83.00,19.80 -67.00,27.80 z" fill="#13451d"></path></g> <g data-week="0" data-day="6" class="day"><path d="M-99.60,57.40 -115.60,49.40 -115.60,59.60 -99.60,67.60 z" fill="#0e3315"></path><path d="M-99.60,57.40 -83.60,49.40 -83.60,59.60 -99.60,67.60 z" fill="#103a18"></path><path d="M-99.60,57.40 -115.60,49.40 -99.60,41.40 -83.60,49.40 z" fill="#13451d"></path></g> <g data-week="1" data-day="0" class="day"><path d="M16.60,21.40 0.60,13.40 0.60,16.60 16.60,24.60 z" fill="#212427"></path><path d="M16.60,21.40 32.60,13.40 32.60,16.60 16.60,24.60 z" fill="#26292d"></path><path d="M16.60,21.40 0.60,13.40 16.60,5.40 32.60,13.40 z" fill="#2d3135"></path></g> <g data-week="1" data-day="1" class="day"><path d="M0.00,23.00 -16.00,15.00 -16.00,25.20 0.00,33.20 z" fill="#0e3315"></path><path d="M0.00,23.00 16.00,15.00 16.00,25.20 0.00,33.20 z" fill="#103a18"></path><path d="M0.00,23.00 -16.00,15.00 0.00,7.00 16.00,15.00 z" fill="#13451d"></path></g> <g data-week="1" data-day="2" class="day"><path d="M-16.60,24.60 -32.60,16.60 -32.60,33.80 -16.60,41.80 z" fill="#0e3315"></path><path d="M-16.60,24.60 -0.60,16.60 -0.60,33.80 -16.60,41.80 z" fill="#103a18"></path><path d="M-16.60,24.60 -32.60,16.60 -16.60,8.60 -0.60,16.60 z" fill="#13451d"></path></g> <g data-week="1" data-day="3" class="day"><path d="M-33.20,27.20 -49.20,19.20 -49.20,42.40 -33.20,50.40 z" fill="#0e3315"></path><path d="M-33.20,27.20 -17.20,19.20 -17.20,42.40 -33.20,50.40 z" fill="#103a18"></path><path d="M-33.20,27.20 -49.20,19.20 -33.20,11.20 -17.20,19.20 z" fill="#13451d"></path></g> <g data-week="1" data-day="4" class="day"><path d="M-49.80,21.80 -65.80,13.80 -65.80,51.00 -49.80,59.00 z" fill="#135a21"></path><path d="M-49.80,21.80 -33.80,13.80 -33.80,51.00 -49.80,59.00 z" fill="#166626"></path><path d="M-49.80,21.80 -65.80,13.80 -49.80,5.80 -33.80,13.80 z" fill="#1a782d"></path></g> <g data-week="1" data-day="5" class="day"><path d="M-66.40,64.40 -82.40,56.40 -82.40,59.60 -66.40,67.60 z" fill="#212427"></path><path d="M-66.40,64.40 -50.40,56.40 -50.40,59.60 -66.40,67.60 z" fill="#26292d"></path><path d="M-66.40,64.40 -82.40,56.40 -66.40,48.40 -50.40,56.40 z" fill="#2d3135"></path></g> <g data-week="1" data-day="6" class="day"><path d="M-83.00,73.00 -99.00,65.00 -99.00,68.20 -83.00,76.20 z" fill="#212427"></path><path d="M-83.00,73.00 -67.00,65.00 -67.00,68.20 -83.00,76.20 z" fill="#26292d"></path><path d="M-83.00,73.00 -99.00,65.00 -83.00,57.00 -67.00,65.00 z" fill="#2d3135"></path></g> <g data-week="2" data-day="0" class="day"><path d="M33.20,16.00 17.20,8.00 17.20,25.20 33.20,33.20 z" fill="#0e3315"></path><path d="M33.20,16.00 49.20,8.00 49.20,25.20 33.20,33.20 z" fill="#103a18"></path><path d="M33.20,16.00 17.20,8.00 33.20,0.00 49.20,8.00 z" fill="#13451d"></path></g> <g data-week="2" data-day="1" class="day"><path d="M16.60,24.60 0.60,16.60 0.60,33.80 16.60,41.80 z" fill="#0e3315"></path><path d="M16.60,24.60 32.60,16.60 32.60,33.80 16.60,41.80 z" fill="#103a18"></path><path d="M16.60,24.60 0.60,16.60 16.60,8.60 32.60,16.60 z" fill="#13451d"></path></g> <g data-week="2" data-day="2" class="day"><path d="M0.00,33.20 -16.00,25.20 -16.00,42.40 0.00,50.40 z" fill="#0e3315"></path><path d="M0.00,33.20 16.00,25.20 16.00,42.40 0.00,50.40 z" fill="#103a18"></path><path d="M0.00,33.20 -16.00,25.20 0.00,17.20 16.00,25.20 z" fill="#13451d"></path></g> <g data-week="2" data-day="3" class="day"><path d="M-16.60,41.80 -32.60,33.80 -32.60,51.00 -16.60,59.00 z" fill="#0e3315"></path><path d="M-16.60,41.80 -0.60,33.80 -0.60,51.00 -16.60,59.00 z" fill="#103a18"></path><path d="M-16.60,41.80 -32.60,33.80 -16.60,25.80 -0.60,33.80 z" fill="#13451d"></path></g> <g data-week="2" data-day="4" class="day"><path d="M-33.20,-9.60 -49.20,-17.60 -49.20,59.60 -33.20,67.60 z" fill="#00ab22"></path><path d="M-33.20,-9.60 -17.20,-17.60 -17.20,59.60 -33.20,67.60 z" fill="#00c227"></path><path d="M-33.20,-9.60 -49.20,-17.60 -33.20,-25.60 -17.20,-17.60 z" fill="#00e52e"></path></g> <g data-week="2" data-day="5" class="day"><path d="M-49.80,66.00 -65.80,58.00 -65.80,68.20 -49.80,76.20 z" fill="#0e3315"></path><path d="M-49.80,66.00 -33.80,58.00 -33.80,68.20 -49.80,76.20 z" fill="#103a18"></path><path d="M-49.80,66.00 -65.80,58.00 -49.80,50.00 -33.80,58.00 z" fill="#13451d"></path></g> <g data-week="2" data-day="6" class="day"><path d="M-66.40,74.60 -82.40,66.60 -82.40,76.80 -66.40,84.80 z" fill="#0e3315"></path><path d="M-66.40,74.60 -50.40,66.60 -50.40,76.80 -66.40,84.80 z" fill="#103a18"></path><path d="M-66.40,74.60 -82.40,66.60 -66.40,58.60 -50.40,66.60 z" fill="#13451d"></path></g> <g data-week="3" data-day="0" class="day"><path d="M49.80,38.60 33.80,30.60 33.80,33.80 49.80,41.80 z" fill="#212427"></path><path d="M49.80,38.60 65.80,30.60 65.80,33.80 49.80,41.80 z" fill="#26292d"></path><path d="M49.80,38.60 33.80,30.60 49.80,22.60 65.80,30.60 z" fill="#2d3135"></path></g> <g data-week="3" data-day="1" class="day"><path d="M33.20,47.20 17.20,39.20 17.20,42.40 33.20,50.40 z" fill="#212427"></path><path d="M33.20,47.20 49.20,39.20 49.20,42.40 33.20,50.40 z" fill="#26292d"></path><path d="M33.20,47.20 17.20,39.20 33.20,31.20 49.20,39.20 z" fill="#2d3135"></path></g> <g data-week="3" data-day="2" class="day"><path d="M16.60,55.80 0.60,47.80 0.60,51.00 16.60,59.00 z" fill="#212427"></path><path d="M16.60,55.80 32.60,47.80 32.60,51.00 16.60,59.00 z" fill="#26292d"></path><path d="M16.60,55.80 0.60,47.80 16.60,39.80 32.60,47.80 z" fill="#2d3135"></path></g> <g data-week="3" data-day="3" class="day"><path d="M0.00,64.40 -16.00,56.40 -16.00,59.60 0.00,67.60 z" fill="#212427"></path><path d="M0.00,64.40 16.00,56.40 16.00,59.60 0.00,67.60 z" fill="#26292d"></path><path d="M0.00,64.40 -16.00,56.40 0.00,48.40 16.00,56.40 z" fill="#2d3135"></path></g> <g data-week="3" data-day="4" class="day"><path d="M-16.60,73.00 -32.60,65.00 -32.60,68.20 -16.60,76.20 z" fill="#212427"></path><path d="M-16.60,73.00 -0.60,65.00 -0.60,68.20 -16.60,76.20 z" fill="#26292d"></path><path d="M-16.60,73.00 -32.60,65.00 -16.60,57.00 -0.60,65.00 z" fill="#2d3135"></path></g> <g data-week="3" data-day="5" class="day"><path d="M-33.20,81.60 -49.20,73.60 -49.20,76.80 -33.20,84.80 z" fill="#212427"></path><path d="M-33.20,81.60 -17.20,73.60 -17.20,76.80 -33.20,84.80 z" fill="#26292d"></path><path d="M-33.20,81.60 -49.20,73.60 -33.20,65.60 -17.20,73.60 z" fill="#2d3135"></path></g> <g data-week="3" data-day="6" class="day"><path d="M-49.80,90.20 -65.80,82.20 -65.80,85.40 -49.80,93.40 z" fill="#212427"></path><path d="M-49.80,90.20 -33.80,82.20 -33.80,85.40 -49.80,93.40 z" fill="#26292d"></path><path d="M-49.80,90.20 -65.80,82.20 -49.80,74.20 -33.80,82.20 z" fill="#2d3135"></path></g> <g data-week="4" data-day="0" class="day"><path d="M66.40,47.20 50.40,39.20 50.40,42.40 66.40,50.40 z" fill="#212427"></path><path d="M66.40,47.20 82.40,39.20 82.40,42.40 66.40,50.40 z" fill="#26292d"></path><path d="M66.40,47.20 50.40,39.20 66.40,31.20 82.40,39.20 z" fill="#2d3135"></path></g> <g data-week="4" data-day="1" class="day"><path d="M49.80,55.80 33.80,47.80 33.80,51.00 49.80,59.00 z" fill="#212427"></path><path d="M49.80,55.80 65.80,47.80 65.80,51.00 49.80,59.00 z" fill="#26292d"></path><path d="M49.80,55.80 33.80,47.80 49.80,39.80 65.80,47.80 z" fill="#2d3135"></path></g> <g data-week="4" data-day="2" class="day"><path d="M33.20,64.40 17.20,56.40 17.20,59.60 33.20,67.60 z" fill="#212427"></path><path d="M33.20,64.40 49.20,56.40 49.20,59.60 33.20,67.60 z" fill="#26292d"></path><path d="M33.20,64.40 17.20,56.40 33.20,48.40 49.20,56.40 z" fill="#2d3135"></path></g> <g data-week="4" data-day="3" class="day"><path d="M16.60,39.00 0.60,31.00 0.60,68.20 16.60,76.20 z" fill="#135a21"></path><path d="M16.60,39.00 32.60,31.00 32.60,68.20 16.60,76.20 z" fill="#166626"></path><path d="M16.60,39.00 0.60,31.00 16.60,23.00 32.60,31.00 z" fill="#1a782d"></path></g> <g data-week="4" data-day="4" class="day"><path d="M0.00,61.60 -16.00,53.60 -16.00,76.80 0.00,84.80 z" fill="#0e3315"></path><path d="M0.00,61.60 16.00,53.60 16.00,76.80 0.00,84.80 z" fill="#103a18"></path><path d="M0.00,61.60 -16.00,53.60 0.00,45.60 16.00,53.60 z" fill="#13451d"></path></g> <g data-week="4" data-day="5" class="day"><path d="M-16.60,76.20 -32.60,68.20 -32.60,85.40 -16.60,93.40 z" fill="#0e3315"></path><path d="M-16.60,76.20 -0.60,68.20 -0.60,85.40 -16.60,93.40 z" fill="#103a18"></path><path d="M-16.60,76.20 -32.60,68.20 -16.60,60.20 -0.60,68.20 z" fill="#13451d"></path></g> <g data-week="4" data-day="6" class="day"><path d="M-33.20,98.80 -49.20,90.80 -49.20,94.00 -33.20,102.00 z" fill="#212427"></path><path d="M-33.20,98.80 -17.20,90.80 -17.20,94.00 -33.20,102.00 z" fill="#26292d"></path><path d="M-33.20,98.80 -49.20,90.80 -33.20,82.80 -17.20,90.80 z" fill="#2d3135"></path></g> <g data-week="5" data-day="0" class="day"><path d="M83.00,55.80 67.00,47.80 67.00,51.00 83.00,59.00 z" fill="#212427"></path><path d="M83.00,55.80 99.00,47.80 99.00,51.00 83.00,59.00 z" fill="#26292d"></path><path d="M83.00,55.80 67.00,47.80 83.00,39.80 99.00,47.80 z" fill="#2d3135"></path></g> <g data-week="5" data-day="1" class="day"><path d="M66.40,64.40 50.40,56.40 50.40,59.60 66.40,67.60 z" fill="#212427"></path><path d="M66.40,64.40 82.40,56.40 82.40,59.60 66.40,67.60 z" fill="#26292d"></path><path d="M66.40,64.40 50.40,56.40 66.40,48.40 82.40,56.40 z" fill="#2d3135"></path></g> <g data-week="5" data-day="2" class="day"><path d="M49.80,73.00 33.80,65.00 33.80,68.20 49.80,76.20 z" fill="#212427"></path><path d="M49.80,73.00 65.80,65.00 65.80,68.20 49.80,76.20 z" fill="#26292d"></path><path d="M49.80,73.00 33.80,65.00 49.80,57.00 65.80,65.00 z" fill="#2d3135"></path></g> <g data-week="5" data-day="3" class="day"><path d="M33.20,67.60 17.20,59.60 17.20,76.80 33.20,84.80 z" fill="#0e3315"></path><path d="M33.20,67.60 49.20,59.60 49.20,76.80 33.20,84.80 z" fill="#103a18"></path><path d="M33.20,67.60 17.20,59.60 33.20,51.60 49.20,59.60 z" fill="#13451d"></path></g> <g data-week="5" data-day="4" class="day"><path d="M16.60,70.20 0.60,62.20 0.60,85.40 16.60,93.40 z" fill="#0e3315"></path><path d="M16.60,70.20 32.60,62.20 32.60,85.40 16.60,93.40 z" fill="#103a18"></path><path d="M16.60,70.20 0.60,62.20 16.60,54.20 32.60,62.20 z" fill="#13451d"></path></g> <g data-week="5" data-day="5" class="day"><path d="M0.00,84.80 -16.00,76.80 -16.00,94.00 0.00,102.00 z" fill="#0e3315"></path><path d="M0.00,84.80 16.00,76.80 16.00,94.00 0.00,102.00 z" fill="#103a18"></path><path d="M0.00,84.80 -16.00,76.80 0.00,68.80 16.00,76.80 z" fill="#13451d"></path></g> <g data-week="5" data-day="6" class="day"><path d="M-16.60,107.40 -32.60,99.40 -32.60,102.60 -16.60,110.60 z" fill="#212427"></path><path d="M-16.60,107.40 -0.60,99.40 -0.60,102.60 -16.60,110.60 z" fill="#26292d"></path><path d="M-16.60,107.40 -32.60,99.40 -16.60,91.40 -0.60,99.40 z" fill="#2d3135"></path></g> <g data-week="6" data-day="0" class="day"><path d="M99.60,64.40 83.60,56.40 83.60,59.60 99.60,67.60 z" fill="#212427"></path><path d="M99.60,64.40 115.60,56.40 115.60,59.60 99.60,67.60 z" fill="#26292d"></path><path d="M99.60,64.40 83.60,56.40 99.60,48.40 115.60,56.40 z" fill="#2d3135"></path></g> <g data-week="6" data-day="1" class="day"><path d="M83.00,19.00 67.00,11.00 67.00,68.20 83.00,76.20 z" fill="#168c2e"></path><path d="M83.00,19.00 99.00,11.00 99.00,68.20 83.00,76.20 z" fill="#199e34"></path><path d="M83.00,19.00 67.00,11.00 83.00,3.00 99.00,11.00 z" fill="#1ebb3e"></path></g> <g data-week="6" data-day="2" class="day"><path d="M66.40,47.60 50.40,39.60 50.40,76.80 66.40,84.80 z" fill="#135a21"></path><path d="M66.40,47.60 82.40,39.60 82.40,76.80 66.40,84.80 z" fill="#166626"></path><path d="M66.40,47.60 50.40,39.60 66.40,31.60 82.40,39.60 z" fill="#1a782d"></path></g> <g data-week="6" data-day="3" class="day"><path d="M49.80,70.20 33.80,62.20 33.80,85.40 49.80,93.40 z" fill="#0e3315"></path><path d="M49.80,70.20 65.80,62.20 65.80,85.40 49.80,93.40 z" fill="#103a18"></path><path d="M49.80,70.20 33.80,62.20 49.80,54.20 65.80,62.20 z" fill="#13451d"></path></g> <g data-week="6" data-day="4" class="day"><path d="M33.20,84.80 17.20,76.80 17.20,94.00 33.20,102.00 z" fill="#0e3315"></path><path d="M33.20,84.80 49.20,76.80 49.20,94.00 33.20,102.00 z" fill="#103a18"></path><path d="M33.20,84.80 17.20,76.80 33.20,68.80 49.20,76.80 z" fill="#13451d"></path></g> <g data-week="6" data-day="5" class="day"><path d="M16.60,107.40 0.60,99.40 0.60,102.60 16.60,110.60 z" fill="#212427"></path><path d="M16.60,107.40 32.60,99.40 32.60,102.60 16.60,110.60 z" fill="#26292d"></path><path d="M16.60,107.40 0.60,99.40 16.60,91.40 32.60,99.40 z" fill="#2d3135"></path></g> <g data-week="6" data-day="6" class="day"><path d="M0.00,116.00 -16.00,108.00 -16.00,111.20 0.00,119.20 z" fill="#212427"></path><path d="M0.00,116.00 16.00,108.00 16.00,111.20 0.00,119.20 z" fill="#26292d"></path><path d="M0.00,116.00 -16.00,108.00 0.00,100.00 16.00,108.00 z" fill="#2d3135"></path></g> <g data-week="7" data-day="0" class="day"><path d="M116.20,73.00 100.20,65.00 100.20,68.20 116.20,76.20 z" fill="#212427"></path><path d="M116.20,73.00 132.20,65.00 132.20,68.20 116.20,76.20 z" fill="#26292d"></path><path d="M116.20,73.00 100.20,65.00 116.20,57.00 132.20,65.00 z" fill="#2d3135"></path></g> <g data-week="7" data-day="1" class="day"><path d="M99.60,81.60 83.60,73.60 83.60,76.80 99.60,84.80 z" fill="#212427"></path><path d="M99.60,81.60 115.60,73.60 115.60,76.80 99.60,84.80 z" fill="#26292d"></path><path d="M99.60,81.60 83.60,73.60 99.60,65.60 115.60,73.60 z" fill="#2d3135"></path></g> </g> </svg>