<svg version='1.1' xmlns='http://www.w3.org/2000/svg' xmlns:xlink='http://www.w3.org/1999/xlink' x='0px' y='0px' width="614.20" height="398.20" viewBox='0 0 614.20 398.20' xml:space='preserve' > <style>g.day { animation: wave 3s ease 0s infinite normal forwards; transform: translate(0px, 0px); } @keyframes wave { 10% { transform: translate(0px, -24px); } 20% { transform: translate(0px, 0px); } } g[data-week="0"][data-day="0"] { animation-delay: 0.660s; } g[data-week="0"][data-day="1"] { animation-delay: 0.630s; } g[data-week="0"][data-day="2"] { animation-delay: 0.600s; } g[data-week="0"][data-day="3"] { animation-delay: 0.570s; } g[data-week="0"][data-day="4"] { animation-delay: 0.600s; } g[data-week="0"][data-day="5"] { animation-delay: 0.630s; } g[data-week="0"][data-day="6"] { animation-delay: 0.660s; } g[data-week="1"][data-day="0"] { animation-delay: 0.630s; } g[data-week="1"][data-day="1"] { animation-delay: 0.600s; } g[data-week="1"][data-day="2"] { animation-delay: 0.570s; } g[data-week="1"][data-day="3"] { animation-delay: 0.540s; } g[data-week="1"][data-day="4"] { animation-delay: 0.570s; } g[data-week="1"][data-day="5"] { animation-delay: 0.600s; } g[data-week="1"][data-day="6"] { animation-delay: 0.630s; } g[data-week="2"][data-day="0"] { animation-delay: 0.600s; } g[data-week="2"][data-day="1"] { animation-delay: 0.570s; } g[data-week="2"][data-day="2"] { animation-delay: 0.540s; } g[data-week="2"][data-day="3"] { animation-delay: 0.510s; } g[data-week="2"][data-day="4"] { animation-delay: 0.540s; } g[data-week="2"][data-day="5"] { animation-delay: 0.570s; } g[data-week="2"][data-day="6"] { animation-delay: 0.600s; } g[data-week="3"][data-day="0"] { animation-delay: 0.570s; } g[data-week="3"][data-day="1"] { animation-delay: 0.540s; } g[data-week="3"][data-day="2"] { animation-delay: 0.510s; } g[data-week="3"][data-day="3"] { animation-delay: 0.480s; } g[data-week="3"][data-day="4"] { animation-delay: 0.510s; } g[data-week="3"][data-day="5"] { animation-delay: 0.540s; } g[data-week="3"][data-day="6"] { animation-delay: 0.570s; } g[data-week="4"][data-day="0"] { animation-delay: 0.540s; } g[data-week="4"][data-day="1"] { animation-delay: 0.510s; } g[data-week="4"][data-day="2"] { animation-delay: 0.480s; } g[data-week="4"][data-day="3"] { animation-delay: 0.450s; } g[data-week="4"][data-day="4"] { animation-delay: 0.480s; } g[data-week="4"][data-day="5"] { animation-delay: 0.510s; } g[data-week="4"][data-day="6"] { animation-delay: 0.540s; } g[data-week="5"][data-day="0"] { animation-delay: 0.510s; } g[data-week="5"][data-day="1"] { animation-delay: 0.480s; } g[data-week="5"][data-day="2"] { animation-delay: 0.450s; } g[data-week="5"][data-day="3"] { animation-delay: 0.420s; } g[data-week="5"][data-day="4"] { animation-delay: 0.450s; } g[data-week="5"][data-day="5"] { animation-delay: 0.480s; } g[data-week="5"][data-day="6"] { animation-delay: 0.510s; } g[data-week="6"][data-day="0"] { animation-delay: 0.480s; } g[data-week="6"][data-day="1"] { animation-delay: 0.450s; } g[data-week="6"][data-day="2"] { animation-delay: 0.420s; } g[data-week="6"][data-day="3"] { animation-delay: 0.390s; } g[data-week="6"][data-day="4"] { animation-delay: 0.420s; } g[data-week="6"][data-day="5"] { animation-delay: 0.450s; } g[data-week="6"][data-day="6"] { animation-delay: 0.480s; } g[data-week="7"][data-day="0"] { animation-delay: 0.450s; } g[data-week="7"][data-day="1"] { animation-delay: 0.420s; } g[data-week="7"][data-day="2"] { animation-delay: 0.390s; } g[data-week="7"][data-day="3"] { animation-delay: 0.360s; } g[data-week="7"][data-day="4"] { animation-delay: 0.390s; } g[data-week="7"][data-day="5"] { animation-delay: 0.420s; } g[data-week="7"][data-day="6"] { animation-delay: 0.450s; } g[data-week="8"][data-day="0"] { animation-delay: 0.420s; } g[data-week="8"][data-day="1"] { animation-delay: 0.390s; } g[data-week="8"][data-day="2"] { animation-delay: 0.360s; } g[data-week="8"][data-day="3"] { animation-delay: 0.330s; } g[data-week="8"][data-day="4"] { animation-delay: 0.360s; } g[data-week="8"][data-day="5"] { animation-delay: 0.390s; } g[data-week="8"][data-day="6"] { animation-delay: 0.420s; } g[data-week="9"][data-day="0"] { animation-delay: 0.390s; } g[data-week="9"][data-day="1"] { animation-delay: 0.360s; } g[data-week="9"][data-day="2"] { animation-delay: 0.330s; } g[data-week="9"][data-day="3"] { animation-delay: 0.300s; } g[data-week="9"][data-day="4"] { animation-delay: 0.330s; } g[data-week="9"][data-day="5"] { animation-delay: 0.360s; } g[data-week="9"][data-day="6"] { animation-delay: 0.390s; } g[data-week="10"][data-day="0"] { animation-delay: 0.360s; } g[data-week="10"][data-day="1"] { animation-delay: 0.330s; } g[data-week="10"][data-day="2"] { animation-delay: 0.300s; } g[data-week="10"][data-day="3"] { animation-delay: 0.270s; } g[data-week="10"][data-day="4"] { animation-delay: 0.300s; } g[data-week="10"][data-day="5"] { animation-delay: 0.330s; } g[data-week="10"][data-day="6"] { animation-delay: 0.360s; } g[data-week="11"][data-day="0"] { animation-delay: 0.330s; } g[data-week="11"][data-day="1"] { animation-delay: 0.300s; } g[data-week="11"][data-day="2"] { animation-delay: 0.270s; } g[data-week="11"][data-day="3"] { animation-delay: 0.240s; } g[data-week="11"][data-day="4"] { animation-delay: 0.270s; } g[data-week="11"][data-day="5"] { animation-delay: 0.300s; } g[data-week="11"][data-day="6"] { animation-delay: 0.330s; } g[data-week="12"][data-day="0"] { animation-delay: 0.300s; } g[data-week="12"][data-day="1"] { animation-delay: 0.270s; } g[data-week="12"][data-day="2"] { animation-delay: 0.240s; } g[data-week="12"][data-day="3"] { animation-delay: 0.210s; } g[data-week="12"][data-day="4"] { animation-delay: 0.240s; } g[data-week="12"][data-day="5"] { animation-delay: 0.270s; } g[data-week="12"][data-day="6"] { animation-delay: 0.300s; } g[data-week="13"][data-day="0"] { animation-delay: 0.270s; } g[data-week="13"][data-day="1"] { animation-delay: 0.240s; } g[data-week="13"][data-day="2"] { animation-delay: 0.210s; } g[data-week="13"][data-day="3"] { animation-delay: 0.180s; } g[data-week="13"][data-day="4"] { animation-delay: 0.210s; } g[data-week="13"][data-day="5"] { animation-delay: 0.240s; } g[data-week="13"][data-day="6"] { animation-delay: 0.270s; } g[data-week="14"][data-day="0"] { animation-delay: 0.240s; } g[data-week="14"][data-day="1"] { animation-delay: 0.210s; } g[data-week="14"][data-day="2"] { animation-delay: 0.180s; } g[data-week="14"][data-day="3"] { animation-delay: 0.150s; } g[data-week="14"][data-day="4"] { animation-delay: 0.180s; } g[data-week="14"][data-day="5"] { animation-delay: 0.210s; } g[data-week="14"][data-day="6"] { animation-delay: 0.240s; } g[data-week="15"][data-day="0"] { animation-delay: 0.210s; } g[data-week="15"][data-day="1"] { animation-delay: 0.180s; } g[data-week="15"][data-day="2"] { animation-delay: 0.150s; } g[data-week="15"][data-day="3"] { animation-delay: 0.120s; } g[data-week="15"][data-day="4"] { animation-delay: 0.150s; } g[data-week="15"][data-day="5"] { animation-delay: 0.180s; } g[data-week="15"][data-day="6"] { animation-delay: 0.210s; } g[data-week="16"][data-day="0"] { animation-delay: 0.180s; } g[data-week="16"][data-day="1"] { animation-delay: 0.150s; } g[data-week="16"][data-day="2"] { animation-delay: 0.120s; } g[data-week="16"][data-day="3"] { animation-delay: 0.090s; } g[data-week="16"][data-day="4"] { animation-delay: 0.120s; } g[data-week="16"][data-day="5"] { animation-delay: 0.150s; } g[data-week="16"][data-day="6"] { animation-delay: 0.180s; } g[data-week="17"][data-day="0"] { animation-delay: 0.150s; } g[data-week="17"][data-day="1"] { animation-delay: 0.120s; } g[data-week="17"][data-day="2"] { animation-delay: 0.090s; } g[data-week="17"][data-day="3"] { animation-delay: 0.060s; } g[data-week="17"][data-day="4"] { animation-delay: 0.090s; } g[data-week="17"][data-day="5"] { animation-delay: 0.120s; } g[data-week="17"][data-day="6"] { animation-delay: 0.150s; } g[data-week="18"][data-day="0"] { animation-delay: 0.120s; } g[data-week="18"][data-day="1"] { animation-delay: 0.090s; } g[data-week="18"][data-day="2"] { animation-delay: 0.060s; } g[data-week="18"][data-day="3"] { animation-delay: 0.030s; } g[data-week="18"][data-day="4"] { animation-delay: 0.060s; } g[data-week="18"][data-day="5"] { animation-delay: 0.090s; } g[data-week="18"][data-day="6"] { animation-delay: 0.120s; } g[data-week="19"][data-day="0"] { animation-delay: 0.090s; } g[data-week="19"][data-day="1"] { animation-delay: 0.060s; } g[data-week="19"][data-day="2"] { animation-delay: 0.030s; } g[data-week="19"][data-day="3"] { animation-delay: 0.000s; } g[data-week="19"][data-day="4"] { animation-delay: 0.030s; } g[data-week="19"][data-day="5"] { animation-delay: 0.060s; } g[data-week="19"][data-day="6"] { animation-delay: 0.090s; } g[data-week="20"][data-day="0"] { animation-delay: 0.120s; } g[data-week="20"][data-day="1"] { animation-delay: 0.090s; } g[data-week="20"][data-day="2"] { animation-delay: 0.060s; } g[data-week="20"][data-day="3"] { animation-delay: 0.030s; } g[data-week="20"][data-day="4"] { animation-delay: 0.060s; } g[data-week="20"][data-day="5"] { animation-delay: 0.090s; } g[data-week="20"][data-day="6"] { animation-delay: 0.120s; } g[data-week="21"][data-day="0"] { animation-delay: 0.150s; } g[data-week="21"][data-day="1"] { animation-delay: 0.120s; } g[data-week="21"][data-day="2"] { animation-delay: 0.090s; } g[data-week="21"][data-day="3"] { animation-delay: 0.060s; } g[data-week="21"][data-day="4"] { animation-delay: 0.090s; } g[data-week="21"][data-day="5"] { animation-delay: 0.120s; } g[data-week="21"][data-day="6"] { animation-delay: 0.150s; } g[data-week="22"][data-day="0"] { animation-delay: 0.180s; } g[data-week="22"][data-day="1"] { animation-delay: 0.150s; } g[data-week="22"][data-day="2"] { animation-delay: 0.120s; } g[data-week="22"][data-day="3"] { animation-delay: 0.090s; } g[data-week="22"][data-day="4"] { animation-delay: 0.120s; } g[data-week="22"][data-day="5"] { animation-delay: 0.150s; } g[data-week="22"][data-day="6"] { animation-delay: 0.180s; } g[data-week="23"][data-day="0"] { animation-delay: 0.210s; } g[data-week="23"][data-day="1"] { animation-delay: 0.180s; } g[data-week="23"][data-day="2"] { animation-delay: 0.150s; } g[data-week="23"][data-day="3"] { animation-delay: 0.120s; } g[data-week="23"][data-day="4"] { animation-delay: 0.150s; } g[data-week="23"][data-day="5"] { animation-delay: 0.180s; } g[data-week="23"][data-day="6"] { animation-delay: 0.210s; } g[data-week="24"][data-day="0"] { animation-delay: 0.240s; } g[data-week="24"][data-day="1"] { animation-delay: 0.210s; } g[data-week="24"][data-day="2"] { animation-delay: 0.180s; } g[data-week="24"][data-day="3"] { animation-delay: 0.150s; } g[data-week="24"][data-day="4"] { animation-delay: 0.180s; } g[data-week="24"][data-day="5"] { animation-delay: 0.210s; } g[data-week="24"][data-day="6"] { animation-delay: 0.240s; } g[data-week="25"][data-day="0"] { animation-delay: 0.270s; } g[data-week="25"][data-day="1"] { animation-delay: 0.240s; } g[data-week="25"][data-day="2"] { animation-delay: 0.210s; } g[data-week="25"][data-day="3"] { animation-delay: 0.180s; } g[data-week="25"][data-day="4"] { animation-delay: 0.210s; } g[data-week="25"][data-day="5"] { animation-delay: 0.240s; } g[data-week="25"][data-day="6"] { animation-delay: 0.270s; } g[data-week="26"][data-day="0"] { animation-delay: 0.300s; } g[data-week="26"][data-day="1"] { animation-delay: 0.270s; } g[data-week="26"][data-day="2"] { animation-delay: 0.240s; } g[data-week="26"][data-day="3"] { animation-delay: 0.210s; } g[data-week="26"][data-day="4"] { animation-delay: 0.240s; } g[data-week="26"][data-day="5"] { animation-delay: 0.270s; } g[data-week="26"][data-day="6"] { animation-delay: 0.300s; } g[data-week="27"][data-day="0"] { animation-delay: 0.330s; } g[data-week="27"][data-day="1"] { animation-delay: 0.300s; } g[data-week="27"][data-day="2"] { animation-delay: 0.270s; } g[data-week="27"][data-day="3"] { animation-delay: 0.240s; } g[data-week="27"][data-day="4"] { animation-delay: 0.270s; } g[data-week="27"][data-day="5"] { animation-delay: 0.300s; } g[data-week="27"][data-day="6"] { animation-delay: 0.330s; } g[data-week="28"][data-day="0"] { animation-delay: 0.360s; } g[data-week="28"][data-day="1"] { animation-delay: 0.330s; } g[data-week="28"][data-day="2"] { animation-delay: 0.300s; } g[data-week="28"][data-day="3"] { animation-delay: 0.270s; } g[data-week="28"][data-day="4"] { animation-delay: 0.300s; } g[data-week="28"][data-day="5"] { animation-delay: 0.330s; } g[data-week="28"][data-day="6"] { animation-delay: 0.360s; } g[data-week="29"][data-day="0"] { animation-delay: 0.390s; } g[data-week="29"][data-day="1"] { animation-delay: 0.360s; } g[data-week="29"][data-day="2"] { animation-delay: 0.330s; } g[data-week="29"][data-day="3"] { animation-delay: 0.300s; } g[data-week="29"][data-day="4"] { animation-delay: 0.330s; } g[data-week="29"][data-day="5"] { animation-delay: 0.360s; } g[data-week="29"][data-day="6"] { animation-delay: 0.390s; } </style> <defs> </defs> <g transform="translate(116.20000000000002,80)"> <g data-week="0" data-day="0" class="day"><path d="M0.00,-46.20 -16.00,-54.20 -16.00,8.00 0.00,16.00 z" fill="#168c2e"></path><path d="M0.00,-46.20 16.00,-54.20 16.00,8.00 0.00,16.00 z" fill="#199e34"></path><path d="M0.00,-46.20 -16.00,-54.20 0.00,-62.20 16.00,-54.20 z" fill="#1ebb3e"></path></g> <g data-week="0" data-day="1" class="day"><path d="M-16.60,17.40 -32.60,9.40 -32.60,16.60 -16.60,24.60 z" fill="#0e3315"></path><path d="M-16.60,17.40 -0.60,9.40 -0.60,16.60 -16.60,24.60 z" fill="#103a18"></path><path d="M-16.60,17.40 -32.60,9.40 -16.60,1.40 -0.60,9.40 z" fill="#13451d"></path></g> <g data-week="0" data-day="2" class="day"><path d="M-33.20,23.00 -49.20,15.00 -49.20,25.20 -33.20,33.20 z" fill="#0e3315"></path><path d="M-33.20,23.00 -17.20,15.00 -17.20,25.20 -33.20,33.20 z" fill="#103a18"></path><path d="M-33.20,23.00 -49.20,15.00 -33.20,7.00 -17.20,15.00 z" fill="#13451d"></path></g> <g data-week="0" data-day="3" class="day"><path d="M-49.80,31.60 -65.80,23.60 -65.80,33.80 -49.80,41.80 z" fill="#0e3315"></path><path d="M-49.80,31.60 -33.80,23.60 -33.80,33.80 -49.80,41.80 z" fill="#103a18"></path><path d="M-49.80,31.60 -65.80,23.60 -49.80,15.60 -33.80,23.60 z" fill="#13451d"></path></g> <g data-week="0" data-day="4" class="day"><path d="M-66.40,19.20 -82.40,11.20 -82.40,42.40 -66.40,50.40 z" fill="#135a21"></path><path d="M-66.40,19.20 -50.40,11.20 -50.40,42.40 -66.40,50.40 z" fill="#166626"></path><path d="M-66.40,19.20 -82.40,11.20 -66.40,3.20 -50.40,11.20 z" fill="#1a782d"></path></g> <g data-week="0" data-day="5" class="day"><path d="M-83.00,39.80 -99.00,31.80 -99.00,51.00 -83.00,59.00 z" fill="#0e3315"></path><path d="M-83.00,39.80 -67.00,31.80 -67.00,51.00 -83.00,59.00 z" fill="#103a18"></path><path d="M-83.00,39.80 -99.00,31.80 -83.00,23.80 -67.00,31.80 z" fill="#13451d"></path></g> <g data-week="0" data-day="6" class="day"><path d="M-99.60,57.40 -115.60,49.40 -115.60,59.60 -99.60,67.60 z" fill="#0e3315"></path><path d="M-99.60,57.40 -83.60,49.40 -83.60,59.60 -99.60,67.60 z" fill="#103a18"></path><path d="M-99.60,57.40 -115.60,49.40 -99.60,41.40 -83.60,49.40 z" fill="#13451d"></path></g> <g data-week="1" data-day="0" class="day"><path d="M16.60,21.40 0.60,13.40 0.60,16.60 16.60,24.60 z" fill="#212427"></path><path d="M16.60,21.40 32.60,13.40 32.60,16.60 16.60,24.60 z" fill="#26292d"></path><path d="M16.60,21.40 0.60,13.40 16.60,5.40 32.60,13.40 z" fill="#2d3135"></path></g> <g data-week="1" data-day="1" class="day"><path d="M0.00,20.00 -16.00,12.00 -16.00,25.20 0.00,33.20 z" fill="#0e3315"></path><path d="M0.00,20.00 16.00,12.00 16.00,25.20 0.00,33.20 z" fill="#103a18"></path><path d="M0.00,20.00 -16.00,12.00 0.00,4.00 16.00,12.00 z" fill="#13451d"></path></g> <g data-week="1" data-day="2" class="day"><path d="M-16.60,16.60 -32.60,8.60 -32.60,33.80 -16.60,41.80 z" fill="#135a21"></path><path d="M-16.60,16.60 -0.60,8.60 -0.60,33.80 -16.60,41.80 z" fill="#166626"></path><path d="M-16.60,16.60 -32.60,8.60 -16.60,0.60 -0.60,8.60 z" fill="#1a782d"></path></g> <g data-week="1" data-day="3" class="day"><path d="M-33.20,-2.80 -49.20,-10.80 -49.20,42.40 -33.20,50.40 z" fill="#168c2e"></path><path d="M-33.20,-2.80 -17.20,-10.80 -17.20,42.40 -33.20,50.40 z" fill="#199e34"></path><path d="M-33.20,-2.80 -49.20,-10.80 -33.20,-18.80 -17.20,-10.80 z" fill="#1ebb3e"></path></g> <g data-week="1" data-day="4" class="day"><path d="M-49.80,45.80 -65.80,37.80 -65.80,51.00 -49.80,59.00 z" fill="#0e3315"></path><path d="M-49.80,45.80 -33.80,37.80 -33.80,51.00 -49.80,59.00 z" fill="#103a18"></path><path d="M-49.80,45.80 -65.80,37.80 -49.80,29.80 -33.80,37.80 z" fill="#13451d"></path></g> <g data-week="1" data-day="5" class="day"><path d="M-66.40,48.40 -82.40,40.40 -82.40,59.60 -66.40,67.60 z" fill="#0e3315"></path><path d="M-66.40,48.40 -50.40,40.40 -50.40,59.60 -66.40,67.60 z" fill="#103a18"></path><path d="M-66.40,48.40 -82.40,40.40 -66.40,32.40 -50.40,40.40 z" fill="#13451d"></path></g> <g data-week="1" data-day="6" class="day"><path d="M-83.00,69.00 -99.00,61.00 -99.00,68.20 -83.00,76.20 z" fill="#0e3315"></path><path d="M-83.00,69.00 -67.00,61.00 -67.00,68.20 -83.00,76.20 z" fill="#103a18"></path><path d="M-83.00,69.00 -99.00,61.00 -83.00,53.00 -67.00,61.00 z" fill="#13451d"></path></g> <g data-week="2" data-day="0" class="day"><path d="M33.20,26.00 17.20,18.00 17.20,25.20 33.20,33.20 z" fill="#0e3315"></path><path d="M33.20,26.00 49.20,18.00 49.20,25.20 33.20,33.20 z" fill="#103a18"></path><path d="M33.20,26.00 17.20,18.00 33.20,10.00 49.20,18.00 z" fill="#13451d"></path></g> <g data-week="2" data-day="1" class="day"><path d="M16.60,31.60 0.60,23.60 0.60,33.80 16.60,41.80 z" fill="#0e3315"></path><path d="M16.60,31.60 32.60,23.60 32.60,33.80 16.60,41.80 z" fill="#103a18"></path><path d="M16.60,31.60 0.60,23.60 16.60,15.60 32.60,23.60 z" fill="#13451d"></path></g> <g data-week="2" data-day="2" class="day"><path d="M0.00,34.20 -16.00,26.20 -16.00,42.40 0.00,50.40 z" fill="#0e3315"></path><path d="M0.00,34.20 16.00,26.20 16.00,42.40 0.00,50.40 z" fill="#103a18"></path><path d="M0.00,34.20 -16.00,26.20 0.00,18.20 16.00,26.20 z" fill="#13451d"></path></g> <g data-week="2" data-day="3" class="day"><path d="M-16.60,36.80 -32.60,28.80 -32.60,51.00 -16.60,59.00 z" fill="#0e3315"></path><path d="M-16.60,36.80 -0.60,28.80 -0.60,51.00 -16.60,59.00 z" fill="#103a18"></path><path d="M-16.60,36.80 -32.60,28.80 -16.60,20.80 -0.60,28.80 z" fill="#13451d"></path></g> <g data-week="2" data-day="4" class="day"><path d="M-33.20,54.40 -49.20,46.40 -49.20,59.60 -33.20,67.60 z" fill="#0e3315"></path><path d="M-33.20,54.40 -17.20,46.40 -17.20,59.60 -33.20,67.60 z" fill="#103a18"></path><path d="M-33.20,54.40 -49.20,46.40 -33.20,38.40 -17.20,46.40 z" fill="#13451d"></path></g> <g data-week="2" data-day="5" class="day"><path d="M-49.80,69.00 -65.80,61.00 -65.80,68.20 -49.80,76.20 z" fill="#0e3315"></path><path d="M-49.80,69.00 -33.80,61.00 -33.80,68.20 -49.80,76.20 z" fill="#103a18"></path><path d="M-49.80,69.00 -65.80,61.00 -49.80,53.00 -33.80,61.00 z" fill="#13451d"></path></g> <g data-week="2" data-day="6" class="day"><path d="M-66.40,74.60 -82.40,66.60 -82.40,76.80 -66.40,84.80 z" fill="#0e3315"></path><path d="M-66.40,74.60 -50.40,66.60 -50.40,76.80 -66.40,84.80 z" fill="#103a18"></path><path d="M-66.40,74.60 -82.40,66.60 -66.40,58.60 -50.40,66.60 z" fill="#13451d"></path></g> <g data-week="3" data-day="0" class="day"><path d="M49.80,13.60 33.80,5.60 33.80,33.80 49.80,41.80 z" fill="#135a21"></path><path d="M49.80,13.60 65.80,5.60 65.80,33.80 49.80,41.80 z" fill="#166626"></path><path d="M49.80,13.60 33.80,5.60 49.80,-2.40 65.80,5.60 z" fill="#1a782d"></path></g> <g data-week="3" data-day="1" class="day"><path d="M33.20,31.20 17.20,23.20 17.20,42.40 33.20,50.40 z" fill="#0e3315"></path><path d="M33.20,31.20 49.20,23.20 49.20,42.40 33.20,50.40 z" fill="#103a18"></path><path d="M33.20,31.20 17.20,23.20 33.20,15.20 49.20,23.20 z" fill="#13451d"></path></g> <g data-week="3" data-day="2" class="day"><path d="M16.60,24.80 0.60,16.80 0.60,51.00 16.60,59.00 z" fill="#135a21"></path><path d="M16.60,24.80 32.60,16.80 32.60,51.00 16.60,59.00 z" fill="#166626"></path><path d="M16.60,24.80 0.60,16.80 16.60,8.80 32.60,16.80 z" fill="#1a782d"></path></g> <g data-week="3" data-day="3" class="day"><path d="M0.00,45.40 -16.00,37.40 -16.00,59.60 0.00,67.60 z" fill="#0e3315"></path><path d="M0.00,45.40 16.00,37.40 16.00,59.60 0.00,67.60 z" fill="#103a18"></path><path d="M0.00,45.40 -16.00,37.40 0.00,29.40 16.00,37.40 z" fill="#13451d"></path></g> <g data-week="3" data-day="4" class="day"><path d="M-16.60,60.00 -32.60,52.00 -32.60,68.20 -16.60,76.20 z" fill="#0e3315"></path><path d="M-16.60,60.00 -0.60,52.00 -0.60,68.20 -16.60,76.20 z" fill="#103a18"></path><path d="M-16.60,60.00 -32.60,52.00 -16.60,44.00 -0.60,52.00 z" fill="#13451d"></path></g> <g data-week="3" data-day="5" class="day"><path d="M-33.20,71.60 -49.20,63.60 -49.20,76.80 -33.20,84.80 z" fill="#0e3315"></path><path d="M-33.20,71.60 -17.20,63.60 -17.20,76.80 -33.20,84.80 z" fill="#103a18"></path><path d="M-33.20,71.60 -49.20,63.60 -33.20,55.60 -17.20,63.60 z" fill="#13451d"></path></g> <g data-week="3" data-day="6" class="day"><path d="M-49.80,86.20 -65.80,78.20 -65.80,85.40 -49.80,93.40 z" fill="#0e3315"></path><path d="M-49.80,86.20 -33.80,78.20 -33.80,85.40 -49.80,93.40 z" fill="#103a18"></path><path d="M-49.80,86.20 -65.80,78.20 -49.80,70.20 -33.80,78.20 z" fill="#13451d"></path></g> <g data-week="4" data-day="0" class="day"><path d="M66.40,43.20 50.40,35.20 50.40,42.40 66.40,50.40 z" fill="#0e3315"></path><path d="M66.40,43.20 82.40,35.20 82.40,42.40 66.40,50.40 z" fill="#103a18"></path><path d="M66.40,43.20 50.40,35.20 66.40,27.20 82.40,35.20 z" fill="#13451d"></path></g> <g data-week="4" data-day="1" class="day"><path d="M49.80,15.80 33.80,7.80 33.80,51.00 49.80,59.00 z" fill="#135a21"></path><path d="M49.80,15.80 65.80,7.80 65.80,51.00 49.80,59.00 z" fill="#166626"></path><path d="M49.80,15.80 33.80,7.80 49.80,-0.20 65.80,7.80 z" fill="#1a782d"></path></g> <g data-week="4" data-day="2" class="day"><path d="M33.20,42.40 17.20,34.40 17.20,59.60 33.20,67.60 z" fill="#135a21"></path><path d="M33.20,42.40 49.20,34.40 49.20,59.60 33.20,67.60 z" fill="#166626"></path><path d="M33.20,42.40 17.20,34.40 33.20,26.40 49.20,34.40 z" fill="#1a782d"></path></g> <g data-week="4" data-day="3" class="day"><path d="M16.60,39.00 0.60,31.00 0.60,68.20 16.60,76.20 z" fill="#135a21"></path><path d="M16.60,39.00 32.60,31.00 32.60,68.20 16.60,76.20 z" fill="#166626"></path><path d="M16.60,39.00 0.60,31.00 16.60,23.00 32.60,31.00 z" fill="#1a782d"></path></g> <g data-week="4" data-day="4" class="day"><path d="M0.00,68.60 -16.00,60.60 -16.00,76.80 0.00,84.80 z" fill="#0e3315"></path><path d="M0.00,68.60 16.00,60.60 16.00,76.80 0.00,84.80 z" fill="#103a18"></path><path d="M0.00,68.60 -16.00,60.60 0.00,52.60 16.00,60.60 z" fill="#13451d"></path></g> <g data-week="4" data-day="5" class="day"><path d="M-16.60,83.20 -32.60,75.20 -32.60,85.40 -16.60,93.40 z" fill="#0e3315"></path><path d="M-16.60,83.20 -0.60,75.20 -0.60,85.40 -16.60,93.40 z" fill="#103a18"></path><path d="M-16.60,83.20 -32.60,75.20 -16.60,67.20 -0.60,75.20 z" fill="#13451d"></path></g> <g data-week="4" data-day="6" class="day"><path d="M-33.20,98.80 -49.20,90.80 -49.20,94.00 -33.20,102.00 z" fill="#212427"></path><path d="M-33.20,98.80 -17.20,90.80 -17.20,94.00 -33.20,102.00 z" fill="#26292d"></path><path d="M-33.20,98.80 -49.20,90.80 -33.20,82.80 -17.20,90.80 z" fill="#2d3135"></path></g> <g data-week="5" data-day="0" class="day"><path d="M83.00,42.80 67.00,34.80 67.00,51.00 83.00,59.00 z" fill="#0e3315"></path><path d="M83.00,42.80 99.00,34.80 99.00,51.00 83.00,59.00 z" fill="#103a18"></path><path d="M83.00,42.80 67.00,34.80 83.00,26.80 99.00,34.80 z" fill="#13451d"></path></g> <g data-week="5" data-day="1" class="day"><path d="M66.40,60.40 50.40,52.40 50.40,59.60 66.40,67.60 z" fill="#0e3315"></path><path d="M66.40,60.40 82.40,52.40 82.40,59.60 66.40,67.60 z" fill="#103a18"></path><path d="M66.40,60.40 50.40,52.40 66.40,44.40 82.40,52.40 z" fill="#13451d"></path></g> <g data-week="5" data-day="2" class="day"><path d="M49.80,66.00 33.80,58.00 33.80,68.20 49.80,76.20 z" fill="#0e3315"></path><path d="M49.80,66.00 65.80,58.00 65.80,68.20 49.80,76.20 z" fill="#103a18"></path><path d="M49.80,66.00 33.80,58.00 49.80,50.00 65.80,58.00 z" fill="#13451d"></path></g> <g data-week="5" data-day="3" class="day"><path d="M33.20,68.60 17.20,60.60 17.20,76.80 33.20,84.80 z" fill="#0e3315"></path><path d="M33.20,68.60 49.20,60.60 49.20,76.80 33.20,84.80 z" fill="#103a18"></path><path d="M33.20,68.60 17.20,60.60 33.20,52.60 49.20,60.60 z" fill="#13451d"></path></g> <g data-week="5" data-day="4" class="day"><path d="M16.60,83.20 0.60,75.20 0.60,85.40 16.60,93.40 z" fill="#0e3315"></path><path d="M16.60,83.20 32.60,75.20 32.60,85.40 16.60,93.40 z" fill="#103a18"></path><path d="M16.60,83.20 0.60,75.20 16.60,67.20 32.60,75.20 z" fill="#13451d"></path></g> <g data-week="5" data-day="5" class="day"><path d="M0.00,58.80 -16.00,50.80 -16.00,94.00 0.00,102.00 z" fill="#135a21"></path><path d="M0.00,58.80 16.00,50.80 16.00,94.00 0.00,102.00 z" fill="#166626"></path><path d="M0.00,58.80 -16.00,50.80 0.00,42.80 16.00,50.80 z" fill="#1a782d"></path></g> <g data-week="5" data-day="6" class="day"><path d="M-16.60,107.40 -32.60,99.40 -32.60,102.60 -16.60,110.60 z" fill="#212427"></path><path d="M-16.60,107.40 -0.60,99.40 -0.60,102.60 -16.60,110.60 z" fill="#26292d"></path><path d="M-16.60,107.40 -32.60,99.40 -16.60,91.40 -0.60,99.40 z" fill="#2d3135"></path></g> <g data-week="6" data-day="0" class="day"><path d="M99.60,36.40 83.60,28.40 83.60,59.60 99.60,67.60 z" fill="#135a21"></path><path d="M99.60,36.40 115.60,28.40 115.60,59.60 99.60,67.60 z" fill="#166626"></path><path d="M99.60,36.40 83.60,28.40 99.60,20.40 115.60,28.40 z" fill="#1a782d"></path></g> <g data-week="6" data-day="1" class="day"><path d="M83.00,63.00 67.00,55.00 67.00,68.20 83.00,76.20 z" fill="#0e3315"></path><path d="M83.00,63.00 99.00,55.00 99.00,68.20 83.00,76.20 z" fill="#103a18"></path><path d="M83.00,63.00 67.00,55.00 83.00,47.00 99.00,55.00 z" fill="#13451d"></path></g> <g data-week="6" data-day="2" class="day"><path d="M66.40,62.60 50.40,54.60 50.40,76.80 66.40,84.80 z" fill="#0e3315"></path><path d="M66.40,62.60 82.40,54.60 82.40,76.80 66.40,84.80 z" fill="#103a18"></path><path d="M66.40,62.60 50.40,54.60 66.40,46.60 82.40,54.60 z" fill="#13451d"></path></g> <g data-week="6" data-day="3" class="day"><path d="M49.80,80.20 33.80,72.20 33.80,85.40 49.80,93.40 z" fill="#0e3315"></path><path d="M49.80,80.20 65.80,72.20 65.80,85.40 49.80,93.40 z" fill="#103a18"></path><path d="M49.80,80.20 33.80,72.20 49.80,64.20 65.80,72.20 z" fill="#13451d"></path></g> <g data-week="6" data-day="4" class="day"><path d="M33.20,98.80 17.20,90.80 17.20,94.00 33.20,102.00 z" fill="#212427"></path><path d="M33.20,98.80 49.20,90.80 49.20,94.00 33.20,102.00 z" fill="#26292d"></path><path d="M33.20,98.80 17.20,90.80 33.20,82.80 49.20,90.80 z" fill="#2d3135"></path></g> <g data-week="6" data-day="5" class="day"><path d="M16.60,103.40 0.60,95.40 0.60,102.60 16.60,110.60 z" fill="#0e3315"></path><path d="M16.60,103.40 32.60,95.40 32.60,102.60 16.60,110.60 z" fill="#103a18"></path><path d="M16.60,103.40 0.60,95.40 16.60,87.40 32.60,95.40 z" fill="#13451d"></path></g> <g data-week="6" data-day="6" class="day"><path d="M0.00,112.00 -16.00,104.00 -16.00,111.20 0.00,119.20 z" fill="#0e3315"></path><path d="M0.00,112.00 16.00,104.00 16.00,111.20 0.00,119.20 z" fill="#103a18"></path><path d="M0.00,112.00 -16.00,104.00 0.00,96.00 16.00,104.00 z" fill="#13451d"></path></g> <g data-week="7" data-day="0" class="day"><path d="M116.20,73.00 100.20,65.00 100.20,68.20 116.20,76.20 z" fill="#212427"></path><path d="M116.20,73.00 132.20,65.00 132.20,68.20 116.20,76.20 z" fill="#26292d"></path><path d="M116.20,73.00 100.20,65.00 116.20,57.00 132.20,65.00 z" fill="#2d3135"></path></g> <g data-week="7" data-day="1" class="day"><path d="M99.60,77.60 83.60,69.60 83.60,76.80 99.60,84.80 z" fill="#0e3315"></path><path d="M99.60,77.60 115.60,69.60 115.60,76.80 99.60,84.80 z" fill="#103a18"></path><path d="M99.60,77.60 83.60,69.60 99.60,61.60 115.60,69.60 z" fill="#13451d"></path></g> <g data-week="7" data-day="2" class="day"><path d="M83.00,90.20 67.00,82.20 67.00,85.40 83.00,93.40 z" fill="#212427"></path><path d="M83.00,90.20 99.00,82.20 99.00,85.40 83.00,93.40 z" fill="#26292d"></path><path d="M83.00,90.20 67.00,82.20 83.00,74.20 99.00,82.20 z" fill="#2d3135"></path></g> <g data-week="7" data-day="3" class="day"><path d="M66.40,85.80 50.40,77.80 50.40,94.00 66.40,102.00 z" fill="#0e3315"></path><path d="M66.40,85.80 82.40,77.80 82.40,94.00 66.40,102.00 z" fill="#103a18"></path><path d="M66.40,85.80 50.40,77.80 66.40,69.80 82.40,77.80 z" fill="#13451d"></path></g> <g data-week="7" data-day="4" class="day"><path d="M49.80,94.40 33.80,86.40 33.80,102.60 49.80,110.60 z" fill="#0e3315"></path><path d="M49.80,94.40 65.80,86.40 65.80,102.60 49.80,110.60 z" fill="#103a18"></path><path d="M49.80,94.40 33.80,86.40 49.80,78.40 65.80,86.40 z" fill="#13451d"></path></g> <g data-week="7" data-day="5" class="day"><path d="M33.20,116.00 17.20,108.00 17.20,111.20 33.20,119.20 z" fill="#212427"></path><path d="M33.20,116.00 49.20,108.00 49.20,111.20 33.20,119.20 z" fill="#26292d"></path><path d="M33.20,116.00 17.20,108.00 33.20,100.00 49.20,108.00 z" fill="#2d3135"></path></g> <g data-week="7" data-day="6" class="day"><path d="M16.60,99.60 0.60,91.60 0.60,119.80 16.60,127.80 z" fill="#135a21"></path><path d="M16.60,99.60 32.60,91.60 32.60,119.80 16.60,127.80 z" fill="#166626"></path><path d="M16.60,99.60 0.60,91.60 16.60,83.60 32.60,91.60 z" fill="#1a782d"></path></g> <g data-week="8" data-day="0" class="day"><path d="M132.80,74.60 116.80,66.60 116.80,76.80 132.80,84.80 z" fill="#0e3315"></path><path d="M132.80,74.60 148.80,66.60 148.80,76.80 132.80,84.80 z" fill="#103a18"></path><path d="M132.80,74.60 116.80,66.60 132.80,58.60 148.80,66.60 z" fill="#13451d"></path></g> <g data-week="8" data-day="1" class="day"><path d="M116.20,71.20 100.20,63.20 100.20,85.40 116.20,93.40 z" fill="#0e3315"></path><path d="M116.20,71.20 132.20,63.20 132.20,85.40 116.20,93.40 z" fill="#103a18"></path><path d="M116.20,71.20 100.20,63.20 116.20,55.20 132.20,63.20 z" fill="#13451d"></path></g> <g data-week="8" data-day="2" class="day"><path d="M99.60,98.80 83.60,90.80 83.60,94.00 99.60,102.00 z" fill="#212427"></path><path d="M99.60,98.80 115.60,90.80 115.60,94.00 99.60,102.00 z" fill="#26292d"></path><path d="M99.60,98.80 83.60,90.80 99.60,82.80 115.60,90.80 z" fill="#2d3135"></path></g> <g data-week="8" data-day="3" class="day"><path d="M83.00,73.40 67.00,65.40 67.00,102.60 83.00,110.60 z" fill="#135a21"></path><path d="M83.00,73.40 99.00,65.40 99.00,102.60 83.00,110.60 z" fill="#166626"></path><path d="M83.00,73.40 67.00,65.40 83.00,57.40 99.00,65.40 z" fill="#1a782d"></path></g> <g data-week="8" data-day="4" class="day"><path d="M66.40,112.00 50.40,104.00 50.40,111.20 66.40,119.20 z" fill="#0e3315"></path><path d="M66.40,112.00 82.40,104.00 82.40,111.20 66.40,119.20 z" fill="#103a18"></path><path d="M66.40,112.00 50.40,104.00 66.40,96.00 82.40,104.00 z" fill="#13451d"></path></g> <g data-week="8" data-day="5" class="day"><path d="M49.80,124.60 33.80,116.60 33.80,119.80 49.80,127.80 z" fill="#212427"></path><path d="M49.80,124.60 65.80,116.60 65.80,119.80 49.80,127.80 z" fill="#26292d"></path><path d="M49.80,124.60 33.80,116.60 49.80,108.60 65.80,116.60 z" fill="#2d3135"></path></g> <g data-week="8" data-day="6" class="day"><path d="M33.20,133.20 17.20,125.20 17.20,128.40 33.20,136.40 z" fill="#212427"></path><path d="M33.20,133.20 49.20,125.20 49.20,128.40 33.20,136.40 z" fill="#26292d"></path><path d="M33.20,133.20 17.20,125.20 33.20,117.20 49.20,125.20 z" fill="#2d3135"></path></g> <g data-week="9" data-day="0" class="day"><path d="M149.40,80.20 133.40,72.20 133.40,85.40 149.40,93.40 z" fill="#0e3315"></path><path d="M149.40,80.20 165.40,72.20 165.40,85.40 149.40,93.40 z" fill="#103a18"></path><path d="M149.40,80.20 133.40,72.20 149.40,64.20 165.40,72.20 z" fill="#13451d"></path></g> <g data-week="9" data-day="1" class="day"><path d="M132.80,82.80 116.80,74.80 116.80,94.00 132.80,102.00 z" fill="#0e3315"></path><path d="M132.80,82.80 148.80,74.80 148.80,94.00 132.80,102.00 z" fill="#103a18"></path><path d="M132.80,82.80 116.80,74.80 132.80,66.80 148.80,74.80 z" fill="#13451d"></path></g> <g data-week="9" data-day="2" class="day"><path d="M116.20,85.40 100.20,77.40 100.20,102.60 116.20,110.60 z" fill="#135a21"></path><path d="M116.20,85.40 132.20,77.40 132.20,102.60 116.20,110.60 z" fill="#166626"></path><path d="M116.20,85.40 100.20,77.40 116.20,69.40 132.20,77.40 z" fill="#1a782d"></path></g> <g data-week="9" data-day="3" class="day"><path d="M99.60,109.00 83.60,101.00 83.60,111.20 99.60,119.20 z" fill="#0e3315"></path><path d="M99.60,109.00 115.60,101.00 115.60,111.20 99.60,119.20 z" fill="#103a18"></path><path d="M99.60,109.00 83.60,101.00 99.60,93.00 115.60,101.00 z" fill="#13451d"></path></g> <g data-week="9" data-day="4" class="day"><path d="M83.00,124.60 67.00,116.60 67.00,119.80 83.00,127.80 z" fill="#212427"></path><path d="M83.00,124.60 99.00,116.60 99.00,119.80 83.00,127.80 z" fill="#26292d"></path><path d="M83.00,124.60 67.00,116.60 83.00,108.60 99.00,116.60 z" fill="#2d3135"></path></g> <g data-week="9" data-day="5" class="day"><path d="M66.40,123.20 50.40,115.20 50.40,128.40 66.40,136.40 z" fill="#0e3315"></path><path d="M66.40,123.20 82.40,115.20 82.40,128.40 66.40,136.40 z" fill="#103a18"></path><path d="M66.40,123.20 50.40,115.20 66.40,107.20 82.40,115.20 z" fill="#13451d"></path></g> <g data-week="9" data-day="6" class="day"><path d="M49.80,141.80 33.80,133.80 33.80,137.00 49.80,145.00 z" fill="#212427"></path><path d="M49.80,141.80 65.80,133.80 65.80,137.00 49.80,145.00 z" fill="#26292d"></path><path d="M49.80,141.80 33.80,133.80 49.80,125.80 65.80,133.80 z" fill="#2d3135"></path></g> <g data-week="10" data-day="0" class="day"><path d="M166.00,94.80 150.00,86.80 150.00,94.00 166.00,102.00 z" fill="#0e3315"></path><path d="M166.00,94.80 182.00,86.80 182.00,94.00 166.00,102.00 z" fill="#103a18"></path><path d="M166.00,94.80 150.00,86.80 166.00,78.80 182.00,86.80 z" fill="#13451d"></path></g> <g data-week="10" data-day="1" class="day"><path d="M149.40,103.40 133.40,95.40 133.40,102.60 149.40,110.60 z" fill="#0e3315"></path><path d="M149.40,103.40 165.40,95.40 165.40,102.60 149.40,110.60 z" fill="#103a18"></path><path d="M149.40,103.40 133.40,95.40 149.40,87.40 165.40,95.40 z" fill="#13451d"></path></g> <g data-week="10" data-day="2" class="day"><path d="M132.80,109.00 116.80,101.00 116.80,111.20 132.80,119.20 z" fill="#0e3315"></path><path d="M132.80,109.00 148.80,101.00 148.80,111.20 132.80,119.20 z" fill="#103a18"></path><path d="M132.80,109.00 116.80,101.00 132.80,93.00 148.80,101.00 z" fill="#13451d"></path></g> <g data-week="10" data-day="3" class="day"><path d="M116.20,108.60 100.20,100.60 100.20,119.80 116.20,127.80 z" fill="#0e3315"></path><path d="M116.20,108.60 132.20,100.60 132.20,119.80 116.20,127.80 z" fill="#103a18"></path><path d="M116.20,108.60 100.20,100.60 116.20,92.60 132.20,100.60 z" fill="#13451d"></path></g> <g data-week="10" data-day="4" class="day"><path d="M99.60,111.20 83.60,103.20 83.60,128.40 99.60,136.40 z" fill="#135a21"></path><path d="M99.60,111.20 115.60,103.20 115.60,128.40 99.60,136.40 z" fill="#166626"></path><path d="M99.60,111.20 83.60,103.20 99.60,95.20 115.60,103.20 z" fill="#1a782d"></path></g> <g data-week="10" data-day="5" class="day"><path d="M83.00,141.80 67.00,133.80 67.00,137.00 83.00,145.00 z" fill="#212427"></path><path d="M83.00,141.80 99.00,133.80 99.00,137.00 83.00,145.00 z" fill="#26292d"></path><path d="M83.00,141.80 67.00,133.80 83.00,125.80 99.00,133.80 z" fill="#2d3135"></path></g> <g data-week="10" data-day="6" class="day"><path d="M66.40,146.40 50.40,138.40 50.40,145.60 66.40,153.60 z" fill="#0e3315"></path><path d="M66.40,146.40 82.40,138.40 82.40,145.60 66.40,153.60 z" fill="#103a18"></path><path d="M66.40,146.40 50.40,138.40 66.40,130.40 82.40,138.40 z" fill="#13451d"></path></g> <g data-week="11" data-day="0" class="day"><path d="M182.60,82.40 166.60,74.40 166.60,102.60 182.60,110.60 z" fill="#135a21"></path><path d="M182.60,82.40 198.60,74.40 198.60,102.60 182.60,110.60 z" fill="#166626"></path><path d="M182.60,82.40 166.60,74.40 182.60,66.40 198.60,74.40 z" fill="#1a782d"></path></g> <g data-week="11" data-day="1" class="day"><path d="M166.00,45.00 150.00,37.00 150.00,111.20 166.00,119.20 z" fill="#00ab22"></path><path d="M166.00,45.00 182.00,37.00 182.00,111.20 166.00,119.20 z" fill="#00c227"></path><path d="M166.00,45.00 150.00,37.00 166.00,29.00 182.00,37.00 z" fill="#00e52e"></path></g> <g data-week="11" data-day="2" class="day"><path d="M149.40,120.60 133.40,112.60 133.40,119.80 149.40,127.80 z" fill="#0e3315"></path><path d="M149.40,120.60 165.40,112.60 165.40,119.80 149.40,127.80 z" fill="#103a18"></path><path d="M149.40,120.60 133.40,112.60 149.40,104.60 165.40,112.60 z" fill="#13451d"></path></g> <g data-week="11" data-day="3" class="day"><path d="M132.80,89.20 116.80,81.20 116.80,128.40 132.80,136.40 z" fill="#168c2e"></path><path d="M132.80,89.20 148.80,81.20 148.80,128.40 132.80,136.40 z" fill="#199e34"></path><path d="M132.80,89.20 116.80,81.20 132.80,73.20 148.80,81.20 z" fill="#1ebb3e"></path></g> <g data-week="11" data-day="4" class="day"><path d="M116.20,61.80 100.20,53.80 100.20,137.00 116.20,145.00 z" fill="#00ab22"></path><path d="M116.20,61.80 132.20,53.80 132.20,137.00 116.20,145.00 z" fill="#00c227"></path><path d="M116.20,61.80 100.20,53.80 116.20,45.80 132.20,53.80 z" fill="#00e52e"></path></g> <g data-week="11" data-day="5" class="day"><path d="M99.60,134.40 83.60,126.40 83.60,145.60 99.60,153.60 z" fill="#0e3315"></path><path d="M99.60,134.40 115.60,126.40 115.60,145.60 99.60,153.60 z" fill="#103a18"></path><path d="M99.60,134.40 83.60,126.40 99.60,118.40 115.60,126.40 z" fill="#13451d"></path></g> <g data-week="11" data-day="6" class="day"><path d="M83.00,143.00 67.00,135.00 67.00,154.20 83.00,162.20 z" fill="#0e3315"></path><path d="M83.00,143.00 99.00,135.00 99.00,154.20 83.00,162.20 z" fill="#103a18"></path><path d="M83.00,143.00 67.00,135.00 83.00,127.00 99.00,135.00 z" fill="#13451d"></path></g> <g data-week="12" data-day="0" class="day"><path d="M199.20,91.00 183.20,83.00 183.20,111.20 199.20,119.20 z" fill="#135a21"></path><path d="M199.20,91.00 215.20,83.00 215.20,111.20 199.20,119.20 z" fill="#166626"></path><path d="M199.20,91.00 183.20,83.00 199.20,75.00 215.20,83.00 z" fill="#1a782d"></path></g> <g data-week="12" data-day="1" class="day"><path d="M182.60,102.60 166.60,94.60 166.60,119.80 182.60,127.80 z" fill="#135a21"></path><path d="M182.60,102.60 198.60,94.60 198.60,119.80 182.60,127.80 z" fill="#166626"></path><path d="M182.60,102.60 166.60,94.60 182.60,86.60 198.60,94.60 z" fill="#1a782d"></path></g> <g data-week="12" data-day="2" class="day"><path d="M166.00,129.20 150.00,121.20 150.00,128.40 166.00,136.40 z" fill="#0e3315"></path><path d="M166.00,129.20 182.00,121.20 182.00,128.40 166.00,136.40 z" fill="#103a18"></path><path d="M166.00,129.20 150.00,121.20 166.00,113.20 182.00,121.20 z" fill="#13451d"></path></g> <g data-week="12" data-day="3" class="day"><path d="M149.40,137.80 133.40,129.80 133.40,137.00 149.40,145.00 z" fill="#0e3315"></path><path d="M149.40,137.80 165.40,129.80 165.40,137.00 149.40,145.00 z" fill="#103a18"></path><path d="M149.40,137.80 133.40,129.80 149.40,121.80 165.40,129.80 z" fill="#13451d"></path></g> <g data-week="12" data-day="4" class="day"><path d="M132.80,134.40 116.80,126.40 116.80,145.60 132.80,153.60 z" fill="#0e3315"></path><path d="M132.80,134.40 148.80,126.40 148.80,145.60 132.80,153.60 z" fill="#103a18"></path><path d="M132.80,134.40 116.80,126.40 132.80,118.40 148.80,126.40 z" fill="#13451d"></path></g> <g data-week="12" data-day="5" class="day"><path d="M116.20,137.00 100.20,129.00 100.20,154.20 116.20,162.20 z" fill="#135a21"></path><path d="M116.20,137.00 132.20,129.00 132.20,154.20 116.20,162.20 z" fill="#166626"></path><path d="M116.20,137.00 100.20,129.00 116.20,121.00 132.20,129.00 z" fill="#1a782d"></path></g> <g data-week="12" data-day="6" class="day"><path d="M99.60,151.60 83.60,143.60 83.60,162.80 99.60,170.80 z" fill="#0e3315"></path><path d="M99.60,151.60 115.60,143.60 115.60,162.80 99.60,170.80 z" fill="#103a18"></path><path d="M99.60,151.60 83.60,143.60 99.60,135.60 115.60,143.60 z" fill="#13451d"></path></g> <g data-week="13" data-day="0" class="day"><path d="M215.80,108.60 199.80,100.60 199.80,119.80 215.80,127.80 z" fill="#0e3315"></path><path d="M215.80,108.60 231.80,100.60 231.80,119.80 215.80,127.80 z" fill="#103a18"></path><path d="M215.80,108.60 199.80,100.60 215.80,92.60 231.80,100.60 z" fill="#13451d"></path></g> <g data-week="13" data-day="1" class="day"><path d="M199.20,129.20 183.20,121.20 183.20,128.40 199.20,136.40 z" fill="#0e3315"></path><path d="M199.20,129.20 215.20,121.20 215.20,128.40 199.20,136.40 z" fill="#103a18"></path><path d="M199.20,129.20 183.20,121.20 199.20,113.20 215.20,121.20 z" fill="#13451d"></path></g> <g data-week="13" data-day="2" class="day"><path d="M182.60,134.80 166.60,126.80 166.60,137.00 182.60,145.00 z" fill="#0e3315"></path><path d="M182.60,134.80 198.60,126.80 198.60,137.00 182.60,145.00 z" fill="#103a18"></path><path d="M182.60,134.80 166.60,126.80 182.60,118.80 198.60,126.80 z" fill="#13451d"></path></g> <g data-week="13" data-day="3" class="day"><path d="M166.00,143.40 150.00,135.40 150.00,145.60 166.00,153.60 z" fill="#0e3315"></path><path d="M166.00,143.40 182.00,135.40 182.00,145.60 166.00,153.60 z" fill="#103a18"></path><path d="M166.00,143.40 150.00,135.40 166.00,127.40 182.00,135.40 z" fill="#13451d"></path></g> <g data-week="13" data-day="4" class="day"><path d="M149.40,159.00 133.40,151.00 133.40,154.20 149.40,162.20 z" fill="#212427"></path><path d="M149.40,159.00 165.40,151.00 165.40,154.20 149.40,162.20 z" fill="#26292d"></path><path d="M149.40,159.00 133.40,151.00 149.40,143.00 165.40,151.00 z" fill="#2d3135"></path></g> <g data-week="13" data-day="5" class="day"><path d="M132.80,160.60 116.80,152.60 116.80,162.80 132.80,170.80 z" fill="#0e3315"></path><path d="M132.80,160.60 148.80,152.60 148.80,162.80 132.80,170.80 z" fill="#103a18"></path><path d="M132.80,160.60 116.80,152.60 132.80,144.60 148.80,152.60 z" fill="#13451d"></path></g> <g data-week="13" data-day="6" class="day"><path d="M116.20,151.20 100.20,143.20 100.20,171.40 116.20,179.40 z" fill="#135a21"></path><path d="M116.20,151.20 132.20,143.20 132.20,171.40 116.20,179.40 z" fill="#166626"></path><path d="M116.20,151.20 100.20,143.20 116.20,135.20 132.20,143.20 z" fill="#1a782d"></path></g> <g data-week="14" data-day="0" class="day"><path d="M232.40,129.20 216.40,121.20 216.40,128.40 232.40,136.40 z" fill="#0e3315"></path><path d="M232.40,129.20 248.40,121.20 248.40,128.40 232.40,136.40 z" fill="#103a18"></path><path d="M232.40,129.20 216.40,121.20 232.40,113.20 248.40,121.20 z" fill="#13451d"></path></g> <g data-week="14" data-day="1" class="day"><path d="M215.80,134.80 199.80,126.80 199.80,137.00 215.80,145.00 z" fill="#0e3315"></path><path d="M215.80,134.80 231.80,126.80 231.80,137.00 215.80,145.00 z" fill="#103a18"></path><path d="M215.80,134.80 199.80,126.80 215.80,118.80 231.80,126.80 z" fill="#13451d"></path></g> <g data-week="14" data-day="2" class="day"><path d="M199.20,137.40 183.20,129.40 183.20,145.60 199.20,153.60 z" fill="#0e3315"></path><path d="M199.20,137.40 215.20,129.40 215.20,145.60 199.20,153.60 z" fill="#103a18"></path><path d="M199.20,137.40 183.20,129.40 199.20,121.40 215.20,129.40 z" fill="#13451d"></path></g> <g data-week="14" data-day="3" class="day"><path d="M182.60,149.00 166.60,141.00 166.60,154.20 182.60,162.20 z" fill="#0e3315"></path><path d="M182.60,149.00 198.60,141.00 198.60,154.20 182.60,162.20 z" fill="#103a18"></path><path d="M182.60,149.00 166.60,141.00 182.60,133.00 198.60,141.00 z" fill="#13451d"></path></g> <g data-week="14" data-day="4" class="day"><path d="M166.00,163.60 150.00,155.60 150.00,162.80 166.00,170.80 z" fill="#0e3315"></path><path d="M166.00,163.60 182.00,155.60 182.00,162.80 166.00,170.80 z" fill="#103a18"></path><path d="M166.00,163.60 150.00,155.60 166.00,147.60 182.00,155.60 z" fill="#13451d"></path></g> <g data-week="14" data-day="5" class="day"><path d="M149.40,169.20 133.40,161.20 133.40,171.40 149.40,179.40 z" fill="#0e3315"></path><path d="M149.40,169.20 165.40,161.20 165.40,171.40 149.40,179.40 z" fill="#103a18"></path><path d="M149.40,169.20 133.40,161.20 149.40,153.20 165.40,161.20 z" fill="#13451d"></path></g> <g data-week="14" data-day="6" class="day"><path d="M132.80,177.80 116.80,169.80 116.80,180.00 132.80,188.00 z" fill="#0e3315"></path><path d="M132.80,177.80 148.80,169.80 148.80,180.00 132.80,188.00 z" fill="#103a18"></path><path d="M132.80,177.80 116.80,169.80 132.80,161.80 148.80,169.80 z" fill="#13451d"></path></g> <g data-week="15" data-day="0" class="day"><path d="M249.00,128.80 233.00,120.80 233.00,137.00 249.00,145.00 z" fill="#0e3315"></path><path d="M249.00,128.80 265.00,120.80 265.00,137.00 249.00,145.00 z" fill="#103a18"></path><path d="M249.00,128.80 233.00,120.80 249.00,112.80 265.00,120.80 z" fill="#13451d"></path></g> <g data-week="15" data-day="1" class="day"><path d="M232.40,140.40 216.40,132.40 216.40,145.60 232.40,153.60 z" fill="#0e3315"></path><path d="M232.40,140.40 248.40,132.40 248.40,145.60 232.40,153.60 z" fill="#103a18"></path><path d="M232.40,140.40 216.40,132.40 232.40,124.40 248.40,132.40 z" fill="#13451d"></path></g> <g data-week="15" data-day="2" class="day"><path d="M215.80,146.00 199.80,138.00 199.80,154.20 215.80,162.20 z" fill="#0e3315"></path><path d="M215.80,146.00 231.80,138.00 231.80,154.20 215.80,162.20 z" fill="#103a18"></path><path d="M215.80,146.00 199.80,138.00 215.80,130.00 231.80,138.00 z" fill="#13451d"></path></g> <g data-week="15" data-day="3" class="day"><path d="M199.20,167.60 183.20,159.60 183.20,162.80 199.20,170.80 z" fill="#212427"></path><path d="M199.20,167.60 215.20,159.60 215.20,162.80 199.20,170.80 z" fill="#26292d"></path><path d="M199.20,167.60 183.20,159.60 199.20,151.60 215.20,159.60 z" fill="#2d3135"></path></g> <g data-week="15" data-day="4" class="day"><path d="M182.60,176.20 166.60,168.20 166.60,171.40 182.60,179.40 z" fill="#212427"></path><path d="M182.60,176.20 198.60,168.20 198.60,171.40 182.60,179.40 z" fill="#26292d"></path><path d="M182.60,176.20 166.60,168.20 182.60,160.20 198.60,168.20 z" fill="#2d3135"></path></g> <g data-week="15" data-day="5" class="day"><path d="M166.00,174.80 150.00,166.80 150.00,180.00 166.00,188.00 z" fill="#0e3315"></path><path d="M166.00,174.80 182.00,166.80 182.00,180.00 166.00,188.00 z" fill="#103a18"></path><path d="M166.00,174.80 150.00,166.80 166.00,158.80 182.00,166.80 z" fill="#13451d"></path></g> <g data-week="15" data-day="6" class="day"><path d="M149.40,193.40 133.40,185.40 133.40,188.60 149.40,196.60 z" fill="#212427"></path><path d="M149.40,193.40 165.40,185.40 165.40,188.60 149.40,196.60 z" fill="#26292d"></path><path d="M149.40,193.40 133.40,185.40 149.40,177.40 165.40,185.40 z" fill="#2d3135"></path></g> <g data-week="16" data-day="0" class="day"><path d="M265.60,150.40 249.60,142.40 249.60,145.60 265.60,153.60 z" fill="#212427"></path><path d="M265.60,150.40 281.60,142.40 281.60,145.60 265.60,153.60 z" fill="#26292d"></path><path d="M265.60,150.40 249.60,142.40 265.60,134.40 281.60,142.40 z" fill="#2d3135"></path></g> <g data-week="16" data-day="1" class="day"><path d="M249.00,140.00 233.00,132.00 233.00,154.20 249.00,162.20 z" fill="#0e3315"></path><path d="M249.00,140.00 265.00,132.00 265.00,154.20 249.00,162.20 z" fill="#103a18"></path><path d="M249.00,140.00 233.00,132.00 249.00,124.00 265.00,132.00 z" fill="#13451d"></path></g> <g data-week="16" data-day="2" class="day"><path d="M232.40,133.60 216.40,125.60 216.40,162.80 232.40,170.80 z" fill="#135a21"></path><path d="M232.40,133.60 248.40,125.60 248.40,162.80 232.40,170.80 z" fill="#166626"></path><path d="M232.40,133.60 216.40,125.60 232.40,117.60 248.40,125.60 z" fill="#1a782d"></path></g> <g data-week="16" data-day="3" class="day"><path d="M215.80,166.20 199.80,158.20 199.80,171.40 215.80,179.40 z" fill="#0e3315"></path><path d="M215.80,166.20 231.80,158.20 231.80,171.40 215.80,179.40 z" fill="#103a18"></path><path d="M215.80,166.20 199.80,158.20 215.80,150.20 231.80,158.20 z" fill="#13451d"></path></g> <g data-week="16" data-day="4" class="day"><path d="M199.20,156.80 183.20,148.80 183.20,180.00 199.20,188.00 z" fill="#135a21"></path><path d="M199.20,156.80 215.20,148.80 215.20,180.00 199.20,188.00 z" fill="#166626"></path><path d="M199.20,156.80 183.20,148.80 199.20,140.80 215.20,148.80 z" fill="#1a782d"></path></g> <g data-week="16" data-day="5" class="day"><path d="M182.60,168.40 166.60,160.40 166.60,188.60 182.60,196.60 z" fill="#135a21"></path><path d="M182.60,168.40 198.60,160.40 198.60,188.60 182.60,196.60 z" fill="#166626"></path><path d="M182.60,168.40 166.60,160.40 182.60,152.40 198.60,160.40 z" fill="#1a782d"></path></g> <g data-week="16" data-day="6" class="day"><path d="M166.00,189.00 150.00,181.00 150.00,197.20 166.00,205.20 z" fill="#0e3315"></path><path d="M166.00,189.00 182.00,181.00 182.00,197.20 166.00,205.20 z" fill="#103a18"></path><path d="M166.00,189.00 150.00,181.00 166.00,173.00 182.00,181.00 z" fill="#13451d"></path></g> <g data-week="17" data-day="0" class="day"><path d="M282.20,149.00 266.20,141.00 266.20,154.20 282.20,162.20 z" fill="#0e3315"></path><path d="M282.20,149.00 298.20,141.00 298.20,154.20 282.20,162.20 z" fill="#103a18"></path><path d="M282.20,149.00 266.20,141.00 282.20,133.00 298.20,141.00 z" fill="#13451d"></path></g> <g data-week="17" data-day="1" class="day"><path d="M265.60,167.60 249.60,159.60 249.60,162.80 265.60,170.80 z" fill="#212427"></path><path d="M265.60,167.60 281.60,159.60 281.60,162.80 265.60,170.80 z" fill="#26292d"></path><path d="M265.60,167.60 249.60,159.60 265.60,151.60 281.60,159.60 z" fill="#2d3135"></path></g> <g data-week="17" data-day="2" class="day"><path d="M249.00,163.20 233.00,155.20 233.00,171.40 249.00,179.40 z" fill="#0e3315"></path><path d="M249.00,163.20 265.00,155.20 265.00,171.40 249.00,179.40 z" fill="#103a18"></path><path d="M249.00,163.20 233.00,155.20 249.00,147.20 265.00,155.20 z" fill="#13451d"></path></g> <g data-week="17" data-day="3" class="day"><path d="M232.40,177.80 216.40,169.80 216.40,180.00 232.40,188.00 z" fill="#0e3315"></path><path d="M232.40,177.80 248.40,169.80 248.40,180.00 232.40,188.00 z" fill="#103a18"></path><path d="M232.40,177.80 216.40,169.80 232.40,161.80 248.40,169.80 z" fill="#13451d"></path></g> <g data-week="17" data-day="4" class="day"><path d="M215.80,193.40 199.80,185.40 199.80,188.60 215.80,196.60 z" fill="#212427"></path><path d="M215.80,193.40 231.80,185.40 231.80,188.60 215.80,196.60 z" fill="#26292d"></path><path d="M215.80,193.40 199.80,185.40 215.80,177.40 231.80,185.40 z" fill="#2d3135"></path></g> <g data-week="17" data-day="5" class="day"><path d="M199.20,195.00 183.20,187.00 183.20,197.20 199.20,205.20 z" fill="#0e3315"></path><path d="M199.20,195.00 215.20,187.00 215.20,197.20 199.20,205.20 z" fill="#103a18"></path><path d="M199.20,195.00 183.20,187.00 199.20,179.00 215.20,187.00 z" fill="#13451d"></path></g> <g data-week="17" data-day="6" class="day"><path d="M182.60,200.60 166.60,192.60 166.60,205.80 182.60,213.80 z" fill="#0e3315"></path><path d="M182.60,200.60 198.60,192.60 198.60,205.80 182.60,213.80 z" fill="#103a18"></path><path d="M182.60,200.60 166.60,192.60 182.60,184.60 198.60,192.60 z" fill="#13451d"></path></g> <g data-week="18" data-day="0" class="day"><path d="M298.80,160.60 282.80,152.60 282.80,162.80 298.80,170.80 z" fill="#0e3315"></path><path d="M298.80,160.60 314.80,152.60 314.80,162.80 298.80,170.80 z" fill="#103a18"></path><path d="M298.80,160.60 282.80,152.60 298.80,144.60 314.80,152.60 z" fill="#13451d"></path></g> <g data-week="18" data-day="1" class="day"><path d="M282.20,176.20 266.20,168.20 266.20,171.40 282.20,179.40 z" fill="#212427"></path><path d="M282.20,176.20 298.20,168.20 298.20,171.40 282.20,179.40 z" fill="#26292d"></path><path d="M282.20,176.20 266.20,168.20 282.20,160.20 298.20,168.20 z" fill="#2d3135"></path></g> <g data-week="18" data-day="2" class="day"><path d="M265.60,162.80 249.60,154.80 249.60,180.00 265.60,188.00 z" fill="#135a21"></path><path d="M265.60,162.80 281.60,154.80 281.60,180.00 265.60,188.00 z" fill="#166626"></path><path d="M265.60,162.80 249.60,154.80 265.60,146.80 281.60,154.80 z" fill="#1a782d"></path></g> <g data-week="18" data-day="3" class="day"><path d="M249.00,134.40 233.00,126.40 233.00,188.60 249.00,196.60 z" fill="#168c2e"></path><path d="M249.00,134.40 265.00,126.40 265.00,188.60 249.00,196.60 z" fill="#199e34"></path><path d="M249.00,134.40 233.00,126.40 249.00,118.40 265.00,126.40 z" fill="#1ebb3e"></path></g> <g data-week="18" data-day="4" class="day"><path d="M232.40,152.00 216.40,144.00 216.40,197.20 232.40,205.20 z" fill="#168c2e"></path><path d="M232.40,152.00 248.40,144.00 248.40,197.20 232.40,205.20 z" fill="#199e34"></path><path d="M232.40,152.00 216.40,144.00 232.40,136.00 248.40,144.00 z" fill="#1ebb3e"></path></g> <g data-week="18" data-day="5" class="day"><path d="M215.80,160.60 199.80,152.60 199.80,205.80 215.80,213.80 z" fill="#168c2e"></path><path d="M215.80,160.60 231.80,152.60 231.80,205.80 215.80,213.80 z" fill="#199e34"></path><path d="M215.80,160.60 199.80,152.60 215.80,144.60 231.80,152.60 z" fill="#1ebb3e"></path></g> <g data-week="18" data-day="6" class="day"><path d="M199.20,219.20 183.20,211.20 183.20,214.40 199.20,222.40 z" fill="#212427"></path><path d="M199.20,219.20 215.20,211.20 215.20,214.40 199.20,222.40 z" fill="#26292d"></path><path d="M199.20,219.20 183.20,211.20 199.20,203.20 215.20,211.20 z" fill="#2d3135"></path></g> <g data-week="19" data-day="0" class="day"><path d="M315.40,176.20 299.40,168.20 299.40,171.40 315.40,179.40 z" fill="#212427"></path><path d="M315.40,176.20 331.40,168.20 331.40,171.40 315.40,179.40 z" fill="#26292d"></path><path d="M315.40,176.20 299.40,168.20 315.40,160.20 331.40,168.20 z" fill="#2d3135"></path></g> <g data-week="19" data-day="1" class="day"><path d="M298.80,168.80 282.80,160.80 282.80,180.00 298.80,188.00 z" fill="#0e3315"></path><path d="M298.80,168.80 314.80,160.80 314.80,180.00 298.80,188.00 z" fill="#103a18"></path><path d="M298.80,168.80 282.80,160.80 298.80,152.80 314.80,160.80 z" fill="#13451d"></path></g> <g data-week="19" data-day="2" class="day"><path d="M282.20,159.40 266.20,151.40 266.20,188.60 282.20,196.60 z" fill="#135a21"></path><path d="M282.20,159.40 298.20,151.40 298.20,188.60 282.20,196.60 z" fill="#166626"></path><path d="M282.20,159.40 266.20,151.40 282.20,143.40 298.20,151.40 z" fill="#1a782d"></path></g> <g data-week="19" data-day="3" class="day"><path d="M265.60,183.00 249.60,175.00 249.60,197.20 265.60,205.20 z" fill="#0e3315"></path><path d="M265.60,183.00 281.60,175.00 281.60,197.20 265.60,205.20 z" fill="#103a18"></path><path d="M265.60,183.00 249.60,175.00 265.60,167.00 281.60,175.00 z" fill="#13451d"></path></g> <g data-week="19" data-day="4" class="day"><path d="M249.00,194.60 233.00,186.60 233.00,205.80 249.00,213.80 z" fill="#0e3315"></path><path d="M249.00,194.60 265.00,186.60 265.00,205.80 249.00,213.80 z" fill="#103a18"></path><path d="M249.00,194.60 233.00,186.60 249.00,178.60 265.00,186.60 z" fill="#13451d"></path></g> <g data-week="19" data-day="5" class="day"><path d="M232.40,194.20 216.40,186.20 216.40,214.40 232.40,222.40 z" fill="#135a21"></path><path d="M232.40,194.20 248.40,186.20 248.40,214.40 232.40,222.40 z" fill="#166626"></path><path d="M232.40,194.20 216.40,186.20 232.40,178.20 248.40,186.20 z" fill="#1a782d"></path></g> <g data-week="19" data-day="6" class="day"><path d="M215.80,202.80 199.80,194.80 199.80,223.00 215.80,231.00 z" fill="#135a21"></path><path d="M215.80,202.80 231.80,194.80 231.80,223.00 215.80,231.00 z" fill="#166626"></path><path d="M215.80,202.80 199.80,194.80 215.80,186.80 231.80,194.80 z" fill="#1a782d"></path></g> <g data-week="20" data-day="0" class="day"><path d="M332.00,177.80 316.00,169.80 316.00,180.00 332.00,188.00 z" fill="#0e3315"></path><path d="M332.00,177.80 348.00,169.80 348.00,180.00 332.00,188.00 z" fill="#103a18"></path><path d="M332.00,177.80 316.00,169.80 332.00,161.80 348.00,169.80 z" fill="#13451d"></path></g> <g data-week="20" data-day="1" class="day"><path d="M315.40,180.40 299.40,172.40 299.40,188.60 315.40,196.60 z" fill="#0e3315"></path><path d="M315.40,180.40 331.40,172.40 331.40,188.60 315.40,196.60 z" fill="#103a18"></path><path d="M315.40,180.40 299.40,172.40 315.40,164.40 331.40,172.40 z" fill="#13451d"></path></g> <g data-week="20" data-day="2" class="day"><path d="M298.80,192.00 282.80,184.00 282.80,197.20 298.80,205.20 z" fill="#0e3315"></path><path d="M298.80,192.00 314.80,184.00 314.80,197.20 298.80,205.20 z" fill="#103a18"></path><path d="M298.80,192.00 282.80,184.00 298.80,176.00 314.80,184.00 z" fill="#13451d"></path></g> <g data-week="20" data-day="3" class="day"><path d="M282.20,166.60 266.20,158.60 266.20,205.80 282.20,213.80 z" fill="#168c2e"></path><path d="M282.20,166.60 298.20,158.60 298.20,205.80 282.20,213.80 z" fill="#199e34"></path><path d="M282.20,166.60 266.20,158.60 282.20,150.60 298.20,158.60 z" fill="#1ebb3e"></path></g> <g data-week="20" data-day="4" class="day"><path d="M265.60,219.20 249.60,211.20 249.60,214.40 265.60,222.40 z" fill="#212427"></path><path d="M265.60,219.20 281.60,211.20 281.60,214.40 265.60,222.40 z" fill="#26292d"></path><path d="M265.60,219.20 249.60,211.20 265.60,203.20 281.60,211.20 z" fill="#2d3135"></path></g> <g data-week="20" data-day="5" class="day"><path d="M249.00,227.80 233.00,219.80 233.00,223.00 249.00,231.00 z" fill="#212427"></path><path d="M249.00,227.80 265.00,219.80 265.00,223.00 249.00,231.00 z" fill="#26292d"></path><path d="M249.00,227.80 233.00,219.80 249.00,211.80 265.00,219.80 z" fill="#2d3135"></path></g> <g data-week="20" data-day="6" class="day"><path d="M232.40,229.40 216.40,221.40 216.40,231.60 232.40,239.60 z" fill="#0e3315"></path><path d="M232.40,229.40 248.40,221.40 248.40,231.60 232.40,239.60 z" fill="#103a18"></path><path d="M232.40,229.40 216.40,221.40 232.40,213.40 248.40,221.40 z" fill="#13451d"></path></g> <g data-week="21" data-day="0" class="day"><path d="M348.60,189.40 332.60,181.40 332.60,188.60 348.60,196.60 z" fill="#0e3315"></path><path d="M348.60,189.40 364.60,181.40 364.60,188.60 348.60,196.60 z" fill="#103a18"></path><path d="M348.60,189.40 332.60,181.40 348.60,173.40 364.60,181.40 z" fill="#13451d"></path></g> <g data-week="21" data-day="1" class="day"><path d="M332.00,189.00 316.00,181.00 316.00,197.20 332.00,205.20 z" fill="#0e3315"></path><path d="M332.00,189.00 348.00,181.00 348.00,197.20 332.00,205.20 z" fill="#103a18"></path><path d="M332.00,189.00 316.00,181.00 332.00,173.00 348.00,181.00 z" fill="#13451d"></path></g> <g data-week="21" data-day="2" class="day"><path d="M315.40,194.60 299.40,186.60 299.40,205.80 315.40,213.80 z" fill="#0e3315"></path><path d="M315.40,194.60 331.40,186.60 331.40,205.80 315.40,213.80 z" fill="#103a18"></path><path d="M315.40,194.60 299.40,186.60 315.40,178.60 331.40,186.60 z" fill="#13451d"></path></g> <g data-week="21" data-day="3" class="day"><path d="M298.80,209.20 282.80,201.20 282.80,214.40 298.80,222.40 z" fill="#0e3315"></path><path d="M298.80,209.20 314.80,201.20 314.80,214.40 298.80,222.40 z" fill="#103a18"></path><path d="M298.80,209.20 282.80,201.20 298.80,193.20 314.80,201.20 z" fill="#13451d"></path></g> <g data-week="21" data-day="4" class="day"><path d="M282.20,214.80 266.20,206.80 266.20,223.00 282.20,231.00 z" fill="#0e3315"></path><path d="M282.20,214.80 298.20,206.80 298.20,223.00 282.20,231.00 z" fill="#103a18"></path><path d="M282.20,214.80 266.20,206.80 282.20,198.80 298.20,206.80 z" fill="#13451d"></path></g> <g data-week="21" data-day="5" class="day"><path d="M265.60,232.40 249.60,224.40 249.60,231.60 265.60,239.60 z" fill="#0e3315"></path><path d="M265.60,232.40 281.60,224.40 281.60,231.60 265.60,239.60 z" fill="#103a18"></path><path d="M265.60,232.40 249.60,224.40 265.60,216.40 281.60,224.40 z" fill="#13451d"></path></g> <g data-week="21" data-day="6" class="day"><path d="M249.00,223.00 233.00,215.00 233.00,240.20 249.00,248.20 z" fill="#135a21"></path><path d="M249.00,223.00 265.00,215.00 265.00,240.20 249.00,248.20 z" fill="#166626"></path><path d="M249.00,223.00 233.00,215.00 249.00,207.00 265.00,215.00 z" fill="#1a782d"></path></g> <g data-week="22" data-day="0" class="day"><path d="M365.20,192.00 349.20,184.00 349.20,197.20 365.20,205.20 z" fill="#0e3315"></path><path d="M365.20,192.00 381.20,184.00 381.20,197.20 365.20,205.20 z" fill="#103a18"></path><path d="M365.20,192.00 349.20,184.00 365.20,176.00 381.20,184.00 z" fill="#13451d"></path></g> <g data-week="22" data-day="1" class="day"><path d="M348.60,182.60 332.60,174.60 332.60,205.80 348.60,213.80 z" fill="#135a21"></path><path d="M348.60,182.60 364.60,174.60 364.60,205.80 348.60,213.80 z" fill="#166626"></path><path d="M348.60,182.60 332.60,174.60 348.60,166.60 364.60,174.60 z" fill="#1a782d"></path></g> <g data-week="22" data-day="2" class="day"><path d="M332.00,188.20 316.00,180.20 316.00,214.40 332.00,222.40 z" fill="#135a21"></path><path d="M332.00,188.20 348.00,180.20 348.00,214.40 332.00,222.40 z" fill="#166626"></path><path d="M332.00,188.20 316.00,180.20 332.00,172.20 348.00,180.20 z" fill="#1a782d"></path></g> <g data-week="22" data-day="3" class="day"><path d="M315.40,214.80 299.40,206.80 299.40,223.00 315.40,231.00 z" fill="#0e3315"></path><path d="M315.40,214.80 331.40,206.80 331.40,223.00 315.40,231.00 z" fill="#103a18"></path><path d="M315.40,214.80 299.40,206.80 315.40,198.80 331.40,206.80 z" fill="#13451d"></path></g> <g data-week="22" data-day="4" class="day"><path d="M298.80,217.40 282.80,209.40 282.80,231.60 298.80,239.60 z" fill="#0e3315"></path><path d="M298.80,217.40 314.80,209.40 314.80,231.60 298.80,239.60 z" fill="#103a18"></path><path d="M298.80,217.40 282.80,209.40 298.80,201.40 314.80,209.40 z" fill="#13451d"></path></g> <g data-week="22" data-day="5" class="day"><path d="M282.20,226.00 266.20,218.00 266.20,240.20 282.20,248.20 z" fill="#0e3315"></path><path d="M282.20,226.00 298.20,218.00 298.20,240.20 282.20,248.20 z" fill="#103a18"></path><path d="M282.20,226.00 266.20,218.00 282.20,210.00 298.20,218.00 z" fill="#13451d"></path></g> <g data-week="22" data-day="6" class="day"><path d="M265.60,237.60 249.60,229.60 249.60,248.80 265.60,256.80 z" fill="#0e3315"></path><path d="M265.60,237.60 281.60,229.60 281.60,248.80 265.60,256.80 z" fill="#103a18"></path><path d="M265.60,237.60 249.60,229.60 265.60,221.60 281.60,229.60 z" fill="#13451d"></path></g> <g data-week="23" data-day="0" class="day"><path d="M381.80,191.60 365.80,183.60 365.80,205.80 381.80,213.80 z" fill="#0e3315"></path><path d="M381.80,191.60 397.80,183.60 397.80,205.80 381.80,213.80 z" fill="#103a18"></path><path d="M381.80,191.60 365.80,183.60 381.80,175.60 397.80,183.60 z" fill="#13451d"></path></g> <g data-week="23" data-day="1" class="day"><path d="M365.20,203.20 349.20,195.20 349.20,214.40 365.20,222.40 z" fill="#0e3315"></path><path d="M365.20,203.20 381.20,195.20 381.20,214.40 365.20,222.40 z" fill="#103a18"></path><path d="M365.20,203.20 349.20,195.20 365.20,187.20 381.20,195.20 z" fill="#13451d"></path></g> <g data-week="23" data-day="2" class="day"><path d="M348.60,202.80 332.60,194.80 332.60,223.00 348.60,231.00 z" fill="#135a21"></path><path d="M348.60,202.80 364.60,194.80 364.60,223.00 348.60,231.00 z" fill="#166626"></path><path d="M348.60,202.80 332.60,194.80 348.60,186.80 364.60,194.80 z" fill="#1a782d"></path></g> <g data-week="23" data-day="3" class="day"><path d="M332.00,229.40 316.00,221.40 316.00,231.60 332.00,239.60 z" fill="#0e3315"></path><path d="M332.00,229.40 348.00,221.40 348.00,231.60 332.00,239.60 z" fill="#103a18"></path><path d="M332.00,229.40 316.00,221.40 332.00,213.40 348.00,221.40 z" fill="#13451d"></path></g> <g data-week="23" data-day="4" class="day"><path d="M315.40,201.00 299.40,193.00 299.40,240.20 315.40,248.20 z" fill="#168c2e"></path><path d="M315.40,201.00 331.40,193.00 331.40,240.20 315.40,248.20 z" fill="#199e34"></path><path d="M315.40,201.00 299.40,193.00 315.40,185.00 331.40,193.00 z" fill="#1ebb3e"></path></g> <g data-week="23" data-day="5" class="day"><path d="M298.80,237.60 282.80,229.60 282.80,248.80 298.80,256.80 z" fill="#0e3315"></path><path d="M298.80,237.60 314.80,229.60 314.80,248.80 298.80,256.80 z" fill="#103a18"></path><path d="M298.80,237.60 282.80,229.60 298.80,221.60 314.80,229.60 z" fill="#13451d"></path></g> <g data-week="23" data-day="6" class="day"><path d="M282.20,249.20 266.20,241.20 266.20,257.40 282.20,265.40 z" fill="#0e3315"></path><path d="M282.20,249.20 298.20,241.20 298.20,257.40 282.20,265.40 z" fill="#103a18"></path><path d="M282.20,249.20 266.20,241.20 282.20,233.20 298.20,241.20 z" fill="#13451d"></path></g> <g data-week="24" data-day="0" class="day"><path d="M398.40,219.20 382.40,211.20 382.40,214.40 398.40,222.40 z" fill="#212427"></path><path d="M398.40,219.20 414.40,211.20 414.40,214.40 398.40,222.40 z" fill="#26292d"></path><path d="M398.40,219.20 382.40,211.20 398.40,203.20 414.40,211.20 z" fill="#2d3135"></path></g> <g data-week="24" data-day="1" class="day"><path d="M381.80,227.80 365.80,219.80 365.80,223.00 381.80,231.00 z" fill="#212427"></path><path d="M381.80,227.80 397.80,219.80 397.80,223.00 381.80,231.00 z" fill="#26292d"></path><path d="M381.80,227.80 365.80,219.80 381.80,211.80 397.80,219.80 z" fill="#2d3135"></path></g> <g data-week="24" data-day="2" class="day"><path d="M365.20,229.40 349.20,221.40 349.20,231.60 365.20,239.60 z" fill="#0e3315"></path><path d="M365.20,229.40 381.20,221.40 381.20,231.60 365.20,239.60 z" fill="#103a18"></path><path d="M365.20,229.40 349.20,221.40 365.20,213.40 381.20,221.40 z" fill="#13451d"></path></g> <g data-week="24" data-day="3" class="day"><path d="M348.60,241.00 332.60,233.00 332.60,240.20 348.60,248.20 z" fill="#0e3315"></path><path d="M348.60,241.00 364.60,233.00 364.60,240.20 348.60,248.20 z" fill="#103a18"></path><path d="M348.60,241.00 332.60,233.00 348.60,225.00 364.60,233.00 z" fill="#13451d"></path></g> <g data-week="24" data-day="4" class="day"><path d="M332.00,240.60 316.00,232.60 316.00,248.80 332.00,256.80 z" fill="#0e3315"></path><path d="M332.00,240.60 348.00,232.60 348.00,248.80 332.00,256.80 z" fill="#103a18"></path><path d="M332.00,240.60 316.00,232.60 332.00,224.60 348.00,232.60 z" fill="#13451d"></path></g> <g data-week="24" data-day="5" class="day"><path d="M315.40,249.20 299.40,241.20 299.40,257.40 315.40,265.40 z" fill="#0e3315"></path><path d="M315.40,249.20 331.40,241.20 331.40,257.40 315.40,265.40 z" fill="#103a18"></path><path d="M315.40,249.20 299.40,241.20 315.40,233.20 331.40,241.20 z" fill="#13451d"></path></g> <g data-week="24" data-day="6" class="day"><path d="M298.80,266.80 282.80,258.80 282.80,266.00 298.80,274.00 z" fill="#0e3315"></path><path d="M298.80,266.80 314.80,258.80 314.80,266.00 298.80,274.00 z" fill="#103a18"></path><path d="M298.80,266.80 282.80,258.80 298.80,250.80 314.80,258.80 z" fill="#13451d"></path></g> <g data-week="25" data-day="0" class="day"><path d="M415.00,223.80 399.00,215.80 399.00,223.00 415.00,231.00 z" fill="#0e3315"></path><path d="M415.00,223.80 431.00,215.80 431.00,223.00 415.00,231.00 z" fill="#103a18"></path><path d="M415.00,223.80 399.00,215.80 415.00,207.80 431.00,215.80 z" fill="#13451d"></path></g> <g data-week="25" data-day="1" class="day"><path d="M398.40,226.40 382.40,218.40 382.40,231.60 398.40,239.60 z" fill="#0e3315"></path><path d="M398.40,226.40 414.40,218.40 414.40,231.60 398.40,239.60 z" fill="#103a18"></path><path d="M398.40,226.40 382.40,218.40 398.40,210.40 414.40,218.40 z" fill="#13451d"></path></g> <g data-week="25" data-day="2" class="day"><path d="M381.80,238.00 365.80,230.00 365.80,240.20 381.80,248.20 z" fill="#0e3315"></path><path d="M381.80,238.00 397.80,230.00 397.80,240.20 381.80,248.20 z" fill="#103a18"></path><path d="M381.80,238.00 365.80,230.00 381.80,222.00 397.80,230.00 z" fill="#13451d"></path></g> <g data-week="25" data-day="3" class="day"><path d="M365.20,253.60 349.20,245.60 349.20,248.80 365.20,256.80 z" fill="#212427"></path><path d="M365.20,253.60 381.20,245.60 381.20,248.80 365.20,256.80 z" fill="#26292d"></path><path d="M365.20,253.60 349.20,245.60 365.20,237.60 381.20,245.60 z" fill="#2d3135"></path></g> <g data-week="25" data-day="4" class="day"><path d="M348.60,262.20 332.60,254.20 332.60,257.40 348.60,265.40 z" fill="#212427"></path><path d="M348.60,262.20 364.60,254.20 364.60,257.40 348.60,265.40 z" fill="#26292d"></path><path d="M348.60,262.20 332.60,254.20 348.60,246.20 364.60,254.20 z" fill="#2d3135"></path></g> <g data-week="25" data-day="5" class="day"><path d="M332.00,263.80 316.00,255.80 316.00,266.00 332.00,274.00 z" fill="#0e3315"></path><path d="M332.00,263.80 348.00,255.80 348.00,266.00 332.00,274.00 z" fill="#103a18"></path><path d="M332.00,263.80 316.00,255.80 332.00,247.80 348.00,255.80 z" fill="#13451d"></path></g> <g data-week="25" data-day="6" class="day"><path d="M315.40,279.40 299.40,271.40 299.40,274.60 315.40,282.60 z" fill="#212427"></path><path d="M315.40,279.40 331.40,271.40 331.40,274.60 315.40,282.60 z" fill="#26292d"></path><path d="M315.40,279.40 299.40,271.40 315.40,263.40 331.40,271.40 z" fill="#2d3135"></path></g> <g data-week="26" data-day="0" class="day"><path d="M431.60,236.40 415.60,228.40 415.60,231.60 431.60,239.60 z" fill="#212427"></path><path d="M431.60,236.40 447.60,228.40 447.60,231.60 431.60,239.60 z" fill="#26292d"></path><path d="M431.60,236.40 415.60,228.40 431.60,220.40 447.60,228.40 z" fill="#2d3135"></path></g> <g data-week="26" data-day="1" class="day"><path d="M415.00,238.00 399.00,230.00 399.00,240.20 415.00,248.20 z" fill="#0e3315"></path><path d="M415.00,238.00 431.00,230.00 431.00,240.20 415.00,248.20 z" fill="#103a18"></path><path d="M415.00,238.00 399.00,230.00 415.00,222.00 431.00,230.00 z" fill="#13451d"></path></g> <g data-week="26" data-day="2" class="day"><path d="M398.40,253.60 382.40,245.60 382.40,248.80 398.40,256.80 z" fill="#212427"></path><path d="M398.40,253.60 414.40,245.60 414.40,248.80 398.40,256.80 z" fill="#26292d"></path><path d="M398.40,253.60 382.40,245.60 398.40,237.60 414.40,245.60 z" fill="#2d3135"></path></g> <g data-week="26" data-day="3" class="day"><path d="M381.80,262.20 365.80,254.20 365.80,257.40 381.80,265.40 z" fill="#212427"></path><path d="M381.80,262.20 397.80,254.20 397.80,257.40 381.80,265.40 z" fill="#26292d"></path><path d="M381.80,262.20 365.80,254.20 381.80,246.20 397.80,254.20 z" fill="#2d3135"></path></g> <g data-week="26" data-day="4" class="day"><path d="M365.20,270.80 349.20,262.80 349.20,266.00 365.20,274.00 z" fill="#212427"></path><path d="M365.20,270.80 381.20,262.80 381.20,266.00 365.20,274.00 z" fill="#26292d"></path><path d="M365.20,270.80 349.20,262.80 365.20,254.80 381.20,262.80 z" fill="#2d3135"></path></g> <g data-week="26" data-day="5" class="day"><path d="M348.60,275.40 332.60,267.40 332.60,274.60 348.60,282.60 z" fill="#0e3315"></path><path d="M348.60,275.40 364.60,267.40 364.60,274.60 348.60,282.60 z" fill="#103a18"></path><path d="M348.60,275.40 332.60,267.40 348.60,259.40 364.60,267.40 z" fill="#13451d"></path></g> <g data-week="26" data-day="6" class="day"><path d="M332.00,288.00 316.00,280.00 316.00,283.20 332.00,291.20 z" fill="#212427"></path><path d="M332.00,288.00 348.00,280.00 348.00,283.20 332.00,291.20 z" fill="#26292d"></path><path d="M332.00,288.00 316.00,280.00 332.00,272.00 348.00,280.00 z" fill="#2d3135"></path></g> <g data-week="27" data-day="0" class="day"><path d="M448.20,245.00 432.20,237.00 432.20,240.20 448.20,248.20 z" fill="#212427"></path><path d="M448.20,245.00 464.20,237.00 464.20,240.20 448.20,248.20 z" fill="#26292d"></path><path d="M448.20,245.00 432.20,237.00 448.20,229.00 464.20,237.00 z" fill="#2d3135"></path></g> <g data-week="27" data-day="1" class="day"><path d="M431.60,237.60 415.60,229.60 415.60,248.80 431.60,256.80 z" fill="#0e3315"></path><path d="M431.60,237.60 447.60,229.60 447.60,248.80 431.60,256.80 z" fill="#103a18"></path><path d="M431.60,237.60 415.60,229.60 431.60,221.60 447.60,229.60 z" fill="#13451d"></path></g> <g data-week="27" data-day="2" class="day"><path d="M415.00,243.20 399.00,235.20 399.00,257.40 415.00,265.40 z" fill="#0e3315"></path><path d="M415.00,243.20 431.00,235.20 431.00,257.40 415.00,265.40 z" fill="#103a18"></path><path d="M415.00,243.20 399.00,235.20 415.00,227.20 431.00,235.20 z" fill="#13451d"></path></g> <g data-week="27" data-day="3" class="day"><path d="M398.40,263.80 382.40,255.80 382.40,266.00 398.40,274.00 z" fill="#0e3315"></path><path d="M398.40,263.80 414.40,255.80 414.40,266.00 398.40,274.00 z" fill="#103a18"></path><path d="M398.40,263.80 382.40,255.80 398.40,247.80 414.40,255.80 z" fill="#13451d"></path></g> <g data-week="27" data-day="4" class="day"><path d="M381.80,279.40 365.80,271.40 365.80,274.60 381.80,282.60 z" fill="#212427"></path><path d="M381.80,279.40 397.80,271.40 397.80,274.60 381.80,282.60 z" fill="#26292d"></path><path d="M381.80,279.40 365.80,271.40 381.80,263.40 397.80,271.40 z" fill="#2d3135"></path></g> <g data-week="27" data-day="5" class="day"><path d="M365.20,278.00 349.20,270.00 349.20,283.20 365.20,291.20 z" fill="#0e3315"></path><path d="M365.20,278.00 381.20,270.00 381.20,283.20 365.20,291.20 z" fill="#103a18"></path><path d="M365.20,278.00 349.20,270.00 365.20,262.00 381.20,270.00 z" fill="#13451d"></path></g> <g data-week="27" data-day="6" class="day"><path d="M348.60,292.60 332.60,284.60 332.60,291.80 348.60,299.80 z" fill="#0e3315"></path><path d="M348.60,292.60 364.60,284.60 364.60,291.80 348.60,299.80 z" fill="#103a18"></path><path d="M348.60,292.60 332.60,284.60 348.60,276.60 364.60,284.60 z" fill="#13451d"></path></g> <g data-week="28" data-day="0" class="day"><path d="M464.80,253.60 448.80,245.60 448.80,248.80 464.80,256.80 z" fill="#212427"></path><path d="M464.80,253.60 480.80,245.60 480.80,248.80 464.80,256.80 z" fill="#26292d"></path><path d="M464.80,253.60 448.80,245.60 464.80,237.60 480.80,245.60 z" fill="#2d3135"></path></g> <g data-week="28" data-day="1" class="day"><path d="M448.20,262.20 432.20,254.20 432.20,257.40 448.20,265.40 z" fill="#212427"></path><path d="M448.20,262.20 464.20,254.20 464.20,257.40 448.20,265.40 z" fill="#26292d"></path><path d="M448.20,262.20 432.20,254.20 448.20,246.20 464.20,254.20 z" fill="#2d3135"></path></g> <g data-week="28" data-day="2" class="day"><path d="M431.60,239.80 415.60,231.80 415.60,266.00 431.60,274.00 z" fill="#135a21"></path><path d="M431.60,239.80 447.60,231.80 447.60,266.00 431.60,274.00 z" fill="#166626"></path><path d="M431.60,239.80 415.60,231.80 431.60,223.80 447.60,231.80 z" fill="#1a782d"></path></g> <g data-week="28" data-day="3" class="day"><path d="M415.00,242.40 399.00,234.40 399.00,274.60 415.00,282.60 z" fill="#135a21"></path><path d="M415.00,242.40 431.00,234.40 431.00,274.60 415.00,282.60 z" fill="#166626"></path><path d="M415.00,242.40 399.00,234.40 415.00,226.40 431.00,234.40 z" fill="#1a782d"></path></g> <g data-week="28" data-day="4" class="day"><path d="M398.40,281.00 382.40,273.00 382.40,283.20 398.40,291.20 z" fill="#0e3315"></path><path d="M398.40,281.00 414.40,273.00 414.40,283.20 398.40,291.20 z" fill="#103a18"></path><path d="M398.40,281.00 382.40,273.00 398.40,265.00 414.40,273.00 z" fill="#13451d"></path></g> <g data-week="28" data-day="5" class="day"><path d="M381.80,286.60 365.80,278.60 365.80,291.80 381.80,299.80 z" fill="#0e3315"></path><path d="M381.80,286.60 397.80,278.60 397.80,291.80 381.80,299.80 z" fill="#103a18"></path><path d="M381.80,286.60 365.80,278.60 381.80,270.60 397.80,278.60 z" fill="#13451d"></path></g> <g data-week="28" data-day="6" class="day"><path d="M365.20,301.20 349.20,293.20 349.20,300.40 365.20,308.40 z" fill="#0e3315"></path><path d="M365.20,301.20 381.20,293.20 381.20,300.40 365.20,308.40 z" fill="#103a18"></path><path d="M365.20,301.20 349.20,293.20 365.20,285.20 381.20,293.20 z" fill="#13451d"></path></g> <g data-week="29" data-day="0" class="day"><path d="M481.40,262.20 465.40,254.20 465.40,257.40 481.40,265.40 z" fill="#212427"></path><path d="M481.40,262.20 497.40,254.20 497.40,257.40 481.40,265.40 z" fill="#26292d"></path><path d="M481.40,262.20 465.40,254.20 481.40,246.20 497.40,254.20 z" fill="#2d3135"></path></g> <g data-week="29" data-day="1" class="day"><path d="M464.80,266.80 448.80,258.80 448.80,266.00 464.80,274.00 z" fill="#0e3315"></path><path d="M464.80,266.80 480.80,258.80 480.80,266.00 464.80,274.00 z" fill="#103a18"></path><path d="M464.80,266.80 448.80,258.80 464.80,250.80 480.80,258.80 z" fill="#13451d"></path></g> <g data-week="29" data-day="2" class="day"><path d="M448.20,275.40 432.20,267.40 432.20,274.60 448.20,282.60 z" fill="#0e3315"></path><path d="M448.20,275.40 464.20,267.40 464.20,274.60 448.20,282.60 z" fill="#103a18"></path><path d="M448.20,275.40 432.20,267.40 448.20,259.40 464.20,267.40 z" fill="#13451d"></path></g> <g data-week="29" data-day="3" class="day"><path d="M431.60,288.00 415.60,280.00 415.60,283.20 431.60,291.20 z" fill="#212427"></path><path d="M431.60,288.00 447.60,280.00 447.60,283.20 431.60,291.20 z" fill="#26292d"></path><path d="M431.60,288.00 415.60,280.00 431.60,272.00 447.60,280.00 z" fill="#2d3135"></path></g> </g> </svg>